<svg width="15" height="11" viewBox="0 0 15 11" fill="none" xmlns="http://www.w3.org/2000/svg">
<path d="M14.1659 9.59261L3.33862 3.34145L8.47887 1.96413C8.57046 1.94129 8.65659 1.90043 8.73223 1.84394C8.80786 1.78746 8.87149 1.71647 8.9194 1.63513C8.9673 1.5538 8.99853 1.46373 9.01126 1.37019C9.02399 1.27665 9.01796 1.18152 8.99353 1.09033C8.9691 0.999152 8.92675 0.913748 8.86896 0.839106C8.81117 0.764464 8.73909 0.70208 8.65693 0.655592C8.57477 0.609104 8.48417 0.579445 8.39043 0.568344C8.29668 0.557243 8.20167 0.564924 8.11092 0.590937L1.31294 2.41245C1.13086 2.46127 0.975623 2.58041 0.881367 2.74366C0.787111 2.90692 0.761555 3.10092 0.810317 3.28302L2.63183 10.081C2.6832 10.2602 2.80289 10.412 2.96513 10.5038C3.12737 10.5956 3.31917 10.62 3.49923 10.5718C3.67929 10.5235 3.83319 10.4065 3.9278 10.2459C4.0224 10.0853 4.05013 9.89392 4.00502 9.71306L2.6277 4.57281L13.455 10.824C13.6183 10.9182 13.8124 10.9438 13.9945 10.895C14.1766 10.8462 14.3319 10.727 14.4262 10.5638C14.5204 10.4005 14.546 10.2064 14.4972 10.0243C14.4484 9.84216 14.3292 9.68688 14.1659 9.59261Z" fill="#0C68D7"/>
</svg>
