<svg width="15" height="33" viewBox="0 0 15 33" fill="none" xmlns="http://www.w3.org/2000/svg">
<path d="M14.2175 18.45C14.5048 18.0694 14.6663 17.5531 14.6667 17.0146V15.9854C14.662 15.448 14.5011 14.9338 14.2175 14.55L3.72335 0.656236C3.53168 0.399876 3.27075 0.255676 2.99856 0.255676C2.72637 0.255676 2.46545 0.399876 2.27377 0.656236L0.824187 2.57915C0.63214 2.82876 0.523917 3.17041 0.523917 3.52707C0.523917 3.88373 0.63214 4.22538 0.824187 4.47499L9.9096 16.5L0.824187 28.525C0.630931 28.7793 0.522227 29.1254 0.522227 29.4864C0.522227 29.8475 0.630931 30.1936 0.824187 30.4479L2.27377 32.3437C2.46545 32.6001 2.72637 32.7443 2.99856 32.7443C3.27075 32.7443 3.53168 32.6001 3.72335 32.3437L14.2175 18.45Z" fill="#1AAAE9"/>
</svg>
