<svg width="27" height="21" viewBox="0 0 27 21" fill="none" xmlns="http://www.w3.org/2000/svg">
<path d="M25.5833 9.29179H4.33358L10.7293 2.89608C10.8447 2.78461 10.9368 2.65128 11.0001 2.50386C11.0634 2.35644 11.0967 2.19788 11.0981 2.03744C11.0995 1.877 11.069 1.71788 11.0082 1.56938C10.9474 1.42088 10.8577 1.28597 10.7443 1.17252C10.6308 1.05906 10.4959 0.96934 10.3474 0.908584C10.1989 0.847828 10.0398 0.817255 9.87935 0.818649C9.7189 0.820043 9.56035 0.853377 9.41292 0.916704C9.2655 0.980032 9.13217 1.07209 9.02071 1.18749L0.562371 9.64583C0.335844 9.87242 0.208588 10.1797 0.208588 10.5001C0.208588 10.8205 0.335844 11.1278 0.562371 11.3544L9.02071 19.8127C9.2486 20.0329 9.55383 20.1546 9.87065 20.1519C10.1875 20.1491 10.4905 20.0221 10.7146 19.798C10.9386 19.574 11.0657 19.2709 11.0684 18.9541C11.0712 18.6373 10.9494 18.3321 10.7293 18.1042L4.33358 11.7085H25.5833C25.9038 11.7085 26.2111 11.5811 26.4378 11.3545C26.6644 11.1279 26.7917 10.8206 26.7917 10.5001C26.7917 10.1796 26.6644 9.8723 26.4378 9.6457C26.2111 9.41909 25.9038 9.29179 25.5833 9.29179Z" fill="white"/>
</svg>
