<svg width="15" height="33" viewBox="0 0 15 33" fill="none" xmlns="http://www.w3.org/2000/svg">
<path d="M0.78248 18.45C0.495232 18.0694 0.33367 17.5531 0.333313 17.0146V15.9854C0.338017 15.448 0.498925 14.9338 0.78248 14.55L11.2766 0.656236C11.4683 0.399876 11.7292 0.255676 12.0014 0.255676C12.2736 0.255676 12.5346 0.399876 12.7262 0.656236L14.1758 2.57915C14.3679 2.82876 14.4761 3.17041 14.4761 3.52707C14.4761 3.88373 14.3679 4.22538 14.1758 4.47499L5.0904 16.5L14.1758 28.525C14.3691 28.7793 14.4778 29.1254 14.4778 29.4864C14.4778 29.8475 14.3691 30.1936 14.1758 30.4479L12.7262 32.3437C12.5346 32.6001 12.2736 32.7443 12.0014 32.7443C11.7292 32.7443 11.4683 32.6001 11.2766 32.3437L0.78248 18.45Z" fill="#1AAAE9"/>
</svg>
