<svg width="48" height="48" viewBox="0 0 48 48" fill="none" xmlns="http://www.w3.org/2000/svg">
<path d="M44.5834 0.776123H3.41673C1.88598 0.776123 0.640625 2.02158 0.640625 3.55223V32.2607C0.640625 33.7915 1.88598 35.0368 3.41673 35.0368H17.8708C17.638 38.3881 16.2773 41.1033 15.2557 44.6796L15.109 45.1931H5.71875C5.15782 45.1931 4.70312 45.6479 4.70312 46.2087C4.70312 46.7695 5.15782 47.2243 5.71875 47.2243H42.2812C42.8421 47.2243 43.2969 46.7695 43.2969 46.2087C43.2969 45.6479 42.8421 45.1931 42.2812 45.1931H32.8911L32.7444 44.6796C31.7225 41.1025 30.3622 38.388 30.1292 35.0368H44.5834C46.114 35.0368 47.3594 33.7915 47.3594 32.2607V3.55223C47.3594 2.02158 46.114 0.776123 44.5834 0.776123ZM3.41673 2.80737H44.5834C44.994 2.80737 45.3281 3.14151 45.3281 3.55223V26.9118H2.67188V3.55223C2.67188 3.14151 3.00602 2.80737 3.41673 2.80737ZM30.7785 45.1931H17.2214C18.2372 41.6556 19.6763 38.7662 19.905 35.0368H28.0949C28.3237 38.7662 29.764 41.6598 30.7785 45.1931ZM44.5834 33.0056H3.41673C3.00602 33.0056 2.67188 32.6714 2.67188 32.2607V28.9431H45.3281V32.2607C45.3281 32.6714 44.994 33.0056 44.5834 33.0056Z" fill="black"/>
<path d="M22.9844 41.1306H25.0156C25.5765 41.1306 26.0312 40.6758 26.0312 40.115C26.0312 39.5541 25.5765 39.0993 25.0156 39.0993H22.9844C22.4234 39.0993 21.9688 39.5541 21.9688 40.115C21.9688 40.6758 22.4234 41.1306 22.9844 41.1306ZM9.78186 25.9237C10.0028 25.9237 10.224 25.852 10.4078 25.7085C10.4403 25.6831 13.7109 23.1715 18.1571 23.1715C18.642 23.1715 19.1304 23.2014 19.6087 23.2608C22.2884 23.5921 24.0851 20.7408 24.2061 18.0659L37.8587 9.14713C38.5391 8.70066 39.0049 8.01592 39.1705 7.21917C39.5128 5.5705 38.4558 3.95891 36.8069 3.61634C36.0098 3.4511 35.1965 3.60567 34.5157 4.05225L20.95 12.9594C19.1294 12.3631 17.1641 13.0064 15.5688 14.053C13.0573 15.7008 9.28481 23.5822 8.86292 24.4755C8.54483 25.1489 9.04005 25.9237 9.78186 25.9237ZM35.6302 5.75017C35.7417 5.67694 35.8666 5.62641 35.9976 5.60147C36.1286 5.57652 36.2633 5.57765 36.3939 5.60479C36.5245 5.63193 36.6485 5.68454 36.7587 5.75962C36.869 5.8347 36.9634 5.93078 37.0365 6.04236C37.3437 6.51046 37.2127 7.14137 36.7462 7.44748L23.8903 15.8458C23.7744 15.5275 23.628 15.2282 23.4495 14.9561C23.2643 14.6726 23.0538 14.4065 22.8208 14.1609L35.6302 5.75017ZM16.683 15.7511C17.6686 15.1046 18.6362 14.7628 19.4811 14.7628C20.4871 14.7628 21.2102 15.246 21.7512 16.0703C22.0068 16.46 22.1461 16.9756 22.1752 17.5366C22.1757 17.5643 22.1771 17.592 22.1799 17.6198C22.2051 18.404 22.0159 19.2695 21.6181 20.0063C21.4153 20.3817 20.8539 21.2549 20.0197 21.2549C19.9657 21.2549 19.9119 21.2515 19.8584 21.2447C17.2447 20.9212 14.6154 21.361 12.1828 22.3988C13.6956 19.5572 15.5658 16.4841 16.683 15.7511Z" fill="black"/>
</svg>
