<svg width="44" height="44" viewBox="0 0 44 44" fill="none" xmlns="http://www.w3.org/2000/svg">
<path d="M8.06879 0.000244141C7.48625 0.00242947 6.92814 0.23461 6.51596 0.646248C6.10378 1.05789 5.87088 1.61566 5.86796 2.19817V25.6658C5.86796 26.6441 7.33703 26.6441 7.33703 25.6658V7.33681H36.6657V25.6658C36.6436 26.6635 38.157 26.6635 38.1348 25.6658V2.19817C38.1319 1.61614 37.8994 1.05878 37.4878 0.64722C37.0762 0.23566 36.5188 0.00315797 35.9368 0.000244141H8.06879ZM8.06879 1.46922H35.9368C36.3525 1.46922 36.6657 1.77965 36.6657 2.19817V5.86783H7.33703V2.19817C7.33703 1.77965 7.64747 1.46645 8.06602 1.46645L8.06879 1.46922ZM9.53509 2.93265C9.43863 2.93265 9.34311 2.95165 9.25399 2.98856C9.16488 3.02547 9.0839 3.07958 9.01569 3.14778C8.94749 3.21598 8.89338 3.29695 8.85647 3.38607C8.81955 3.47518 8.80055 3.57069 8.80055 3.66714C8.80055 3.7636 8.81955 3.85911 8.85647 3.94822C8.89338 4.03733 8.94749 4.1183 9.01569 4.1865C9.0839 4.25471 9.16488 4.30881 9.25399 4.34572C9.34311 4.38263 9.43863 4.40163 9.53509 4.40163C9.7299 4.40163 9.91673 4.32425 10.0545 4.1865C10.1922 4.04876 10.2696 3.86194 10.2696 3.66714C10.2696 3.47234 10.1922 3.28552 10.0545 3.14778C9.91673 3.01004 9.7299 2.93265 9.53509 2.93265ZM12.4677 2.93265C12.3712 2.93265 12.2757 2.95165 12.1866 2.98856C12.0975 3.02547 12.0165 3.07958 11.9483 3.14778C11.8801 3.21598 11.826 3.29695 11.7891 3.38607C11.7521 3.47518 11.7331 3.57069 11.7331 3.66714C11.7331 3.7636 11.7521 3.85911 11.7891 3.94822C11.826 4.03733 11.8801 4.1183 11.9483 4.1865C12.0165 4.25471 12.0975 4.30881 12.1866 4.34572C12.2757 4.38263 12.3712 4.40163 12.4677 4.40163C12.6625 4.40163 12.8493 4.32425 12.9871 4.1865C13.1248 4.04876 13.2022 3.86194 13.2022 3.66714C13.2022 3.47234 13.1248 3.28552 12.9871 3.14778C12.8493 3.01004 12.6625 2.93265 12.4677 2.93265ZM15.4003 2.93265C15.3038 2.93265 15.2083 2.95165 15.1192 2.98856C15.0301 3.02547 14.9491 3.07958 14.8809 3.14778C14.8127 3.21598 14.7586 3.29695 14.7217 3.38607C14.6847 3.47518 14.6657 3.57069 14.6657 3.66714C14.6657 3.7636 14.6847 3.85911 14.7217 3.94822C14.7586 4.03733 14.8127 4.1183 14.8809 4.1865C14.9491 4.25471 15.0301 4.30881 15.1192 4.34572C15.2083 4.38263 15.3038 4.40163 15.4003 4.40163C15.5951 4.40163 15.7819 4.32425 15.9197 4.1865C16.0574 4.04876 16.1348 3.86194 16.1348 3.66714C16.1348 3.47234 16.0574 3.28552 15.9197 3.14778C15.7819 3.01004 15.5951 2.93265 15.4003 2.93265ZM25.6311 2.93265C24.6416 3.00195 24.7081 4.42658 25.6671 4.40163H34.4705C35.4267 4.37946 35.4267 2.95483 34.4705 2.93265H25.6311ZM2.2036 4.40163C1.6208 4.40381 1.06241 4.6359 0.649784 5.04746C0.237159 5.45902 0.00364759 6.01679 0 6.59955V32.9996C0 34.2052 0.997858 35.1975 2.2036 35.1975H41.8019C42.384 35.1946 42.9414 34.9621 43.353 34.5505C43.7646 34.1389 43.9971 33.5816 44 32.9996V6.59955C43.9971 6.01752 43.7646 5.46017 43.353 5.04861C42.9414 4.63705 42.384 4.40454 41.8019 4.40163H40.3329C39.335 4.37946 39.335 5.89001 40.3329 5.86783H41.8019C42.2205 5.86783 42.5309 6.17826 42.5309 6.59955V27.8664H1.4663V6.59955C1.4663 6.17826 1.78506 5.86783 2.2036 5.86783H3.66436C4.66222 5.89001 4.66222 4.37946 3.66436 4.39886L2.2036 4.40163ZM24.2119 10.2554C24.0547 10.254 23.9013 10.303 23.774 10.3953C23.6468 10.4876 23.5525 10.6183 23.5051 10.7681L19.1034 23.9667C18.793 24.8952 20.1845 25.3609 20.4977 24.4324L24.8993 11.231C24.9376 11.1208 24.9491 11.0031 24.9329 10.8876C24.9167 10.7721 24.8732 10.6621 24.806 10.5668C24.7388 10.4714 24.6499 10.3935 24.5466 10.3393C24.4433 10.2852 24.3286 10.2564 24.2119 10.2554ZM27.3995 14.496L31.1221 17.6002L27.3995 20.7073C26.604 21.3281 27.5852 22.5033 28.3419 21.8326L32.7353 18.1657C32.8175 18.0967 32.8835 18.0106 32.9289 17.9134C32.9742 17.8162 32.9977 17.7103 32.9977 17.603C32.9977 17.4958 32.9742 17.3898 32.9289 17.2926C32.8835 17.1954 32.8175 17.1093 32.7353 17.0404L28.3392 13.3707C28.1973 13.2521 28.0167 13.1899 27.8319 13.1961C27.139 13.2571 26.8895 14.083 27.3995 14.4988V14.496ZM16.1182 13.1933C15.9522 13.1988 15.7929 13.2603 15.6664 13.3679L11.2675 17.0376C11.1853 17.1065 11.1192 17.1926 11.0739 17.2898C11.0286 17.387 11.0051 17.493 11.0051 17.6002C11.0051 17.7075 11.0286 17.8134 11.0739 17.9107C11.1192 18.0079 11.1853 18.094 11.2675 18.1629L15.6636 21.8298C16.4203 22.5338 17.432 21.3198 16.6005 20.7045L12.8751 17.6002L16.606 14.4988C16.7248 14.4016 16.8102 14.2697 16.8502 14.1215C16.8901 13.9733 16.8827 13.8164 16.8289 13.6726C16.7751 13.5289 16.6776 13.4057 16.5501 13.3202C16.4226 13.2347 16.2716 13.1886 16.1182 13.1933ZM1.4663 29.3354H42.5337V32.9996C42.5364 33.0961 42.5193 33.1922 42.4837 33.282C42.448 33.3718 42.3945 33.4534 42.3263 33.5219C42.2581 33.5903 42.1767 33.6442 42.087 33.6802C41.9974 33.7162 41.9013 33.7336 41.8047 33.7313H2.2036C2.10643 33.7343 2.00965 33.7175 1.91918 33.6819C1.82872 33.6463 1.74647 33.5926 1.67746 33.5241C1.60846 33.4556 1.55414 33.3738 1.51783 33.2836C1.48152 33.1934 1.46399 33.0967 1.4663 32.9996V29.3354ZM23.5079 30.8016H20.5004C19.5636 30.9125 19.6273 32.2373 20.5337 32.2623H23.4691C24.4752 32.3538 24.5584 30.821 23.5079 30.8016ZM17.8894 36.6082C17.7454 36.6053 17.6038 36.6447 17.4821 36.7216C17.3604 36.7985 17.2639 36.9094 17.2047 37.0406C16.8499 37.7973 16.218 38.6814 15.1259 39.5989H13.934C13.3517 39.6032 12.7946 39.837 12.3836 40.2496C11.9726 40.6621 11.7409 41.22 11.7387 41.8023V43.263C11.7359 43.6676 12.063 43.9975 12.4677 44.0002H31.5351C31.6318 44.0002 31.7275 43.9812 31.8168 43.9441C31.9061 43.907 31.9872 43.8526 32.0555 43.7841C32.1237 43.7156 32.1778 43.6343 32.2145 43.5449C32.2513 43.4555 32.27 43.3597 32.2696 43.263V41.8023C32.266 41.2195 32.033 40.6616 31.6212 40.2492C31.2093 39.8369 30.6516 39.6032 30.0688 39.5989H28.8769C27.7876 38.6842 27.1528 37.7973 26.798 37.0406C26.7617 36.9468 26.7064 36.8614 26.6357 36.7898C26.5649 36.7183 26.4802 36.662 26.3868 36.6245C26.2934 36.587 26.1933 36.5691 26.0927 36.5719C25.9921 36.5747 25.8932 36.5981 25.802 36.6408C25.7108 36.6834 25.6294 36.7443 25.5628 36.8197C25.4961 36.8951 25.4457 36.9834 25.4146 37.0791C25.3835 37.1748 25.3724 37.2759 25.382 37.3761C25.3916 37.4763 25.4216 37.5734 25.4703 37.6615C25.7558 38.2712 26.191 38.9309 26.7814 39.5989H17.2214C17.809 38.9337 18.2469 38.274 18.5324 37.6587C18.5857 37.5481 18.6105 37.426 18.6044 37.3034C18.5984 37.1808 18.5617 37.0617 18.4977 36.957C18.4338 36.8522 18.3446 36.7652 18.2383 36.7038C18.132 36.6424 18.0121 36.6086 17.8894 36.6055V36.6082ZM13.934 41.0651H30.066C30.1635 41.0628 30.2604 41.0803 30.3508 41.1165C30.4413 41.1528 30.5235 41.207 30.5924 41.2759C30.6614 41.3449 30.7156 41.427 30.7518 41.5175C30.7881 41.608 30.8056 41.7049 30.8033 41.8023V42.534H13.2022V41.8023C13.2022 41.3838 13.5154 41.0651 13.934 41.0651Z" fill="black"/>
</svg>
