<svg xmlns="http://www.w3.org/2000/svg" version="1.1" xmlns:xlink="http://www.w3.org/1999/xlink" xmlns:svgjs="http://svgjs.com/svgjs" width="512" height="512" x="0" y="0" viewBox="0 0 511.997 511.997" style="enable-background:new 0 0 512 512" xml:space="preserve"><g><path d="M335.274 258.137a86.38 86.38 0 0 1-24.67 50.62c-16.92 16.93-40.57 24.9-70.27 23.7-20.83-.83-30.45 4.62-32.03 5.61-6.38 5.59-14.48 8.65-23.03 8.65-9.35 0-18.14-3.64-24.75-10.25-11.41-11.41-13.25-29.01-5.46-42.42l5.59-8.86c1.9-4.63 4.47-13.77 3.87-28.54-1.19-29.71 6.78-53.35 23.7-70.27 13.86-13.85 31.58-22.43 50.74-24.72a81.83 81.83 0 0 1 17.05-35.46H55.034c-22.08 0-40.05 17.96-40.05 40.04v198.59h417.8v-197.19l-50.77 62.22a81.822 81.822 0 0 1-46.74 28.28zM14.984 407.627c0 22.07 17.97 40.03 40.05 40.03h113.819v34.34h-25.228c-8.284 0-15 6.716-15 15s6.716 15 15 15h160.513c8.284 0 15-6.716 15-15s-6.716-15-15-15H278.91v-34.34h113.823c22.08 0 40.05-17.96 40.05-40.03v-12.8h-417.8v12.8z" fill="#000000" data-original="#000000"></path><path d="M182.1 307.834a.03.03 0 0 0-.008.008.008.008 0 0 0-.004.004l-.004.004-.005.005c-.001.003-.002.003-.005.005l-.001.001-.005.005-.001.001a.022.022 0 0 0-.004.005l-.001.001-.005.005-.001.001-.005.005a5 5 0 0 0 7.101 7.04c.306-.29 15.453-14.293 52.767-12.793 20.993.846 37.089-4.183 47.846-14.939 22.043-22.043 22.043-57.909 0-79.952-10.678-10.678-24.875-16.559-39.976-16.559s-29.298 5.88-39.976 16.559c-10.756 10.756-15.783 26.854-14.939 47.846 1.508 37.517-12.653 52.623-12.767 52.741l-.007.007zM333.974 227.297a51.7 51.7 0 0 0 25.16-16.76l19.166-23.488-68.276-68.276-23.39 19.104a51.625 51.625 0 0 0-16.81 25.14c15.46 3.63 29.64 11.5 41.15 23.01 11.78 11.78 19.45 26.13 23 41.27zM488.004 9.007a30.566 30.566 0 0 0-41.07-2.06L333.376 99.7l63.987 63.987 92.711-113.619a30.566 30.566 0 0 0-2.07-41.061z" fill="#000000" data-original="#000000"></path></g></svg>