<svg width="47" height="53" viewBox="0 0 47 53" fill="none" xmlns="http://www.w3.org/2000/svg">
<path d="M17.6154 13.6569C18.2802 13.2777 18.9818 12.967 19.7094 12.7295C19.9473 12.6589 20.2034 12.6839 20.4232 12.7992C20.643 12.9145 20.8092 13.1109 20.8864 13.3468C20.9636 13.5826 20.9458 13.8393 20.8367 14.0622C20.7276 14.2851 20.5359 14.4567 20.3023 14.5405C19.6975 14.7382 19.1144 14.9969 18.5619 15.3125C18.4532 15.3747 18.3333 15.4148 18.2091 15.4306C18.0848 15.4464 17.9587 15.4376 17.8379 15.4047C17.7171 15.3718 17.604 15.3154 17.505 15.2387C17.4059 15.1621 17.323 15.0667 17.2608 14.958C17.1987 14.8492 17.1586 14.7294 17.1428 14.6052C17.1269 14.4809 17.1358 14.3548 17.1687 14.234C17.2352 13.99 17.3959 13.7824 17.6154 13.6569ZM11.9357 23.5256C11.9717 20.6516 13.0552 17.8895 14.9829 15.7576C15.0676 15.6655 15.1697 15.591 15.2832 15.5383C15.3967 15.4856 15.5196 15.4558 15.6446 15.4506C15.7697 15.4454 15.8945 15.4648 16.0121 15.5079C16.1296 15.5509 16.2375 15.6167 16.3296 15.7014C16.4218 15.7861 16.4963 15.8882 16.549 16.0017C16.6017 16.1153 16.6315 16.2381 16.6367 16.3631C16.6419 16.4882 16.6224 16.613 16.5794 16.7306C16.5364 16.8481 16.4706 16.956 16.3859 17.0482C14.7707 18.8441 13.8659 21.1675 13.841 23.5828C13.831 23.8337 13.7223 24.0705 13.5386 24.2418C13.3549 24.4131 13.1111 24.5049 12.8601 24.4974C12.609 24.4898 12.3711 24.3835 12.1981 24.2016C12.025 24.0196 11.9307 23.7767 11.9357 23.5256ZM29.2188 46.4502H17.7812C17.5285 46.4502 17.286 46.3497 17.1073 46.171C16.9285 45.9922 16.8281 45.7498 16.8281 45.497C16.8281 45.2442 16.9285 45.0018 17.1073 44.8231C17.286 44.6443 17.5285 44.5439 17.7812 44.5439H29.2188C29.4715 44.5439 29.714 44.6443 29.8927 44.8231C30.0715 45.0018 30.1719 45.2442 30.1719 45.497C30.1719 45.7498 30.0715 45.9922 29.8927 46.171C29.714 46.3497 29.4715 46.4502 29.2188 46.4502ZM29.2188 49.3095H17.7812C17.5285 49.3095 17.286 49.2091 17.1073 49.0304C16.9285 48.8516 16.8281 48.6092 16.8281 48.3564C16.8281 48.1036 16.9285 47.8612 17.1073 47.6824C17.286 47.5037 17.5285 47.4033 17.7812 47.4033H29.2188C29.4715 47.4033 29.714 47.5037 29.8927 47.6824C30.0715 47.8612 30.1719 48.1036 30.1719 48.3564C30.1719 48.6092 30.0715 48.8516 29.8927 49.0304C29.714 49.2091 29.4715 49.3095 29.2188 49.3095ZM27.3125 52.1689H19.6875C19.4347 52.1689 19.1923 52.0685 19.0135 51.8897C18.8348 51.711 18.7344 51.4686 18.7344 51.2158C18.7344 50.963 18.8348 50.7206 19.0135 50.5418C19.1923 50.3631 19.4347 50.2627 19.6875 50.2627H27.3125C27.5653 50.2627 27.8077 50.3631 27.9865 50.5418C28.1652 50.7206 28.2656 50.963 28.2656 51.2158C28.2656 51.4686 28.1652 51.711 27.9865 51.8897C27.8077 52.0685 27.5653 52.1689 27.3125 52.1689ZM22.5469 5.44577V1.78577C22.5469 1.53298 22.6473 1.29055 22.826 1.11181C23.0048 0.93306 23.2472 0.832642 23.5 0.832642C23.7528 0.832642 23.9952 0.93306 24.174 1.11181C24.3527 1.29055 24.4531 1.53298 24.4531 1.78577V5.44577C24.4531 5.69855 24.3527 5.94098 24.174 6.11973C23.9952 6.29847 23.7528 6.39889 23.5 6.39889C23.2472 6.39889 23.0048 6.29847 22.826 6.11973C22.6473 5.94098 22.5469 5.69855 22.5469 5.44577ZM11.4916 9.65763L9.34037 6.69531C9.26678 6.59405 9.21385 6.47929 9.1846 6.35757C9.15535 6.23586 9.15037 6.10957 9.16993 5.98593C9.20943 5.73622 9.34651 5.51244 9.55101 5.3638C9.75552 5.21516 10.0107 5.15385 10.2604 5.19335C10.384 5.21291 10.5026 5.25663 10.6094 5.32202C10.7161 5.38741 10.8089 5.47318 10.8825 5.57444L13.0347 8.53675C13.1833 8.74138 13.2446 8.99667 13.205 9.24647C13.1654 9.49627 13.0282 9.72011 12.8236 9.86874C12.6189 10.0174 12.3636 10.0786 12.1138 10.039C11.8641 9.99946 11.6402 9.86226 11.4916 9.65763ZM5.02367 19.5615L1.54 18.4321C1.42097 18.3934 1.31073 18.3316 1.21558 18.2502C1.12043 18.1689 1.04224 18.0696 0.985464 17.958C0.870799 17.7327 0.850333 17.4711 0.92857 17.2307C1.00681 16.9903 1.17734 16.7908 1.40265 16.6761C1.62796 16.5615 1.88959 16.541 2.12998 16.6193L5.61175 17.7497C5.85227 17.8278 6.05192 17.9982 6.16676 18.2235C6.28161 18.4488 6.30224 18.7105 6.22413 18.9511C6.14602 19.1916 5.97556 19.3912 5.75026 19.5061C5.52495 19.6209 5.26324 19.6416 5.02272 19.5635L5.02367 19.5615ZM1.54095 30.696L5.02367 29.5646C5.26321 29.4896 5.52264 29.5122 5.74566 29.6273C5.96867 29.7425 6.13726 29.941 6.21482 30.1797C6.29238 30.4184 6.27265 30.6781 6.15992 30.9023C6.04719 31.1266 5.85055 31.2973 5.6127 31.3774L2.13094 32.5088C2.0119 32.5475 1.88641 32.5625 1.76161 32.5527C1.63681 32.5429 1.51516 32.5087 1.4036 32.4519C1.29204 32.3951 1.19275 32.3169 1.11141 32.2218C1.03007 32.1266 0.968262 32.0164 0.929524 31.8974C0.890785 31.7783 0.87587 31.6528 0.885632 31.528C0.895394 31.4032 0.929641 31.2816 0.986418 31.17C1.04319 31.0585 1.12139 30.9592 1.21654 30.8778C1.31168 30.7965 1.42192 30.7347 1.54095 30.696ZM44.8691 32.5088L41.3873 31.3774C41.1494 31.2973 40.9528 31.1266 40.8401 30.9023C40.7274 30.6781 40.7076 30.4184 40.7852 30.1797C40.8627 29.941 41.0313 29.7425 41.2543 29.6273C41.4774 29.5122 41.7368 29.4896 41.9763 29.5646L45.459 30.696C45.6994 30.7742 45.8989 30.9447 46.0136 31.17C46.1283 31.3953 46.1487 31.657 46.0705 31.8974C45.9922 32.1378 45.8217 32.3372 45.5964 32.4519C45.3711 32.5666 45.1095 32.587 44.8691 32.5088ZM41.3873 17.7487L44.8691 16.6183C45.1095 16.5401 45.3711 16.5605 45.5964 16.6752C45.8217 16.7899 45.9922 16.9893 46.0705 17.2297C46.1487 17.4701 46.1283 17.7318 46.0136 17.9571C45.8989 18.1824 45.6994 18.3529 45.459 18.4311L41.9763 19.5625C41.7358 19.6406 41.4741 19.62 41.2488 19.5051C41.0235 19.3903 40.853 19.1906 40.7749 18.9501C40.6968 18.7096 40.7174 18.4479 40.8323 18.2226C40.9471 17.9973 41.1468 17.8268 41.3873 17.7487ZM33.9653 8.53675L36.1175 5.57444C36.1911 5.47318 36.2839 5.38741 36.3906 5.32202C36.4974 5.25663 36.616 5.21291 36.7396 5.19335C36.8632 5.17379 36.9895 5.17878 37.1112 5.20802C37.233 5.23727 37.3477 5.2902 37.449 5.3638C37.5502 5.4374 37.636 5.53022 37.7014 5.63696C37.7668 5.74371 37.8105 5.86229 37.8301 5.98593C37.8496 6.10957 37.8446 6.23586 37.8154 6.35757C37.7862 6.47929 37.7332 6.59405 37.6596 6.69531L35.5094 9.65858C35.3607 9.86321 35.1369 10.0004 34.8871 10.04C34.6373 10.0796 34.382 10.0183 34.1774 9.8697C33.9728 9.72106 33.8356 9.49722 33.796 9.24742C33.7564 8.99763 33.8176 8.74233 33.9663 8.5377L33.9653 8.53675Z" fill="black"/>
<path d="M23.5 9.27829C20.7417 9.25893 18.0346 10.0235 15.6939 11.4829C15.4803 11.6181 15.3292 11.8327 15.2738 12.0793C15.2184 12.326 15.2632 12.5846 15.3984 12.7982C15.5337 13.0118 15.7482 13.1629 15.9949 13.2183C16.2416 13.2737 16.5001 13.2289 16.7138 13.0937C18.7495 11.8278 21.1029 11.1661 23.5 11.1855C25.1308 11.1704 26.7485 11.4771 28.2605 12.088C29.7726 12.6989 31.1493 13.6021 32.3119 14.7457C33.4745 15.8894 34.4002 17.2511 35.0358 18.7529C35.6715 20.2547 36.0047 21.8672 36.0164 23.498C36.0863 26.6386 35.0152 29.6981 33.0017 32.1094C31.0803 34.6802 29.8409 37.6955 29.3989 40.8744C29.3663 41.1 29.2534 41.3062 29.0809 41.4552C28.9084 41.6042 28.688 41.686 28.4601 41.6855H24.6971C24.1558 39.5629 24.5389 38.3267 25.6283 34.4494L25.6417 34.436C29.2178 30.6826 29.1911 27.7108 28.5392 25.877C27.8531 23.8503 26.574 22.0764 24.8677 20.7854C23.797 19.9466 22.9411 18.8652 22.3705 17.6305C22.2721 17.4327 22.1234 17.2643 21.9393 17.142C21.7553 17.0197 21.5424 16.9479 21.3219 16.9337C21.1014 16.9195 20.8811 16.9635 20.6829 17.0612C20.4847 17.1589 20.3157 17.3069 20.1927 17.4904C18.7246 19.6554 18.0077 22.2424 18.152 24.8543C18.3522 26.7376 18.9474 28.5575 19.8988 30.1951C20.8502 31.8328 22.1365 33.2512 23.6735 34.3579C22.6346 38.0741 22.2819 39.4047 22.7489 41.6855H18.5399C18.312 41.6857 18.0917 41.6037 17.9194 41.4546C17.7471 41.3054 17.6344 41.099 17.6021 40.8734C17.1585 37.6953 15.9192 34.6807 13.9993 32.1094C11.9854 29.6983 10.914 26.6387 10.9836 23.498C11.0397 21.1237 11.7369 18.8088 13.0013 16.7984C13.1375 16.5854 13.1834 16.3269 13.1289 16.08C13.0745 15.833 12.9242 15.6178 12.7111 15.4817C12.498 15.3456 12.2396 15.2997 11.9926 15.3541C11.7457 15.4085 11.5305 15.5588 11.3944 15.7719C9.94497 18.0726 9.14469 20.7224 9.07827 23.4408C8.98652 27.0399 10.2098 30.5491 12.519 33.3113C14.2233 35.6191 15.3226 38.3168 15.7168 41.1584C15.8151 41.8362 16.1549 42.4556 16.6736 42.9027C17.1924 43.3498 17.8551 43.5945 18.5399 43.5917H28.4601C29.1447 43.5945 29.8074 43.3499 30.3261 42.903C30.8448 42.4561 31.1847 41.8369 31.2832 41.1594C31.6779 38.3176 32.7772 35.6197 34.481 33.3113C36.7902 30.5491 38.0135 27.0399 37.9217 23.4408C37.9068 21.5633 37.5217 19.7071 36.7884 17.9786C36.0552 16.2502 34.9883 14.6833 33.6487 13.3677C32.3091 12.0521 30.7232 11.0136 28.9817 10.3117C27.2403 9.60986 25.3775 9.25931 23.5 9.27829ZM20.0525 24.7018C19.9426 22.8847 20.3497 21.0738 21.2268 19.4786C21.8447 20.5472 22.664 21.4859 23.6392 22.2427C25.0869 23.3154 26.1702 24.807 26.7425 26.5156C26.9504 27.1953 27.007 27.9123 26.9082 28.6162C26.8094 29.3202 26.5577 29.9939 26.1707 30.5902C26.1535 28.7885 25.7457 27.012 24.9754 25.3832C24.8642 25.1612 24.6707 24.9913 24.4361 24.9097C24.2015 24.8282 23.9444 24.8414 23.7194 24.9467C23.4944 25.0519 23.3194 25.2408 23.2316 25.4731C23.1438 25.7054 23.1502 25.9628 23.2493 26.1905C24.1509 28.0981 24.4666 30.2302 24.1567 32.3172C21.8365 30.4204 20.3611 27.6827 20.0525 24.7018Z" fill="black"/>
<path d="M14.9219 14.1097C14.9219 14.2982 14.866 14.4825 14.7612 14.6392C14.6565 14.7959 14.5077 14.9181 14.3335 14.9903C14.1593 15.0624 13.9677 15.0813 13.7828 15.0445C13.5979 15.0077 13.4281 14.9169 13.2948 14.7836C13.1615 14.6503 13.0707 14.4805 13.0339 14.2956C12.9972 14.1107 13.016 13.9191 13.0882 13.7449C13.1603 13.5708 13.2825 13.4219 13.4392 13.3172C13.596 13.2125 13.7802 13.1566 13.9688 13.1566C14.2215 13.1566 14.464 13.257 14.6427 13.4357C14.8215 13.6145 14.9219 13.8569 14.9219 14.1097Z" fill="black"/>
</svg>
