<svg width="581" height="548" viewBox="0 0 581 548" fill="none" xmlns="http://www.w3.org/2000/svg">
<circle cx="287" cy="256" r="240" fill="white"/>
<circle cx="287" cy="256" r="239.75" stroke="black" stroke-opacity="0.32" stroke-width="0.5"/>
<path d="M237.567 227.785H238.557V229H237.417C236.577 229 235.927 228.74 235.467 228.22C234.977 228.74 234.322 229 233.502 229H228.147C227.337 229 226.702 228.73 226.242 228.19C225.842 227.72 225.642 227.105 225.642 226.345V224.53L226.932 223.84V226.225C226.932 227.265 227.417 227.785 228.387 227.785H233.367C234.327 227.785 234.807 227.265 234.807 226.225V220.015L236.112 219.325V226.285C236.112 227.285 236.597 227.785 237.567 227.785ZM230.952 221.695C231.812 221.735 232.242 222.16 232.242 222.97C232.242 223.32 232.137 223.6 231.927 223.81C231.727 224.02 231.457 224.125 231.117 224.125H229.137L229.482 223.48H231.057C231.417 223.48 231.597 223.3 231.597 222.94C231.597 222.5 231.317 222.28 230.757 222.28C230.467 222.28 230.202 222.35 229.962 222.49V221.89L231.222 220.495H232.017L230.952 221.695ZM244.565 227.785H248.525V229H244.445C243.905 229 243.37 228.895 242.84 228.685C242.31 228.895 241.77 229 241.22 229H237.155V227.785H241.115H241.325C240.605 227.195 239.865 226.33 239.105 225.19V224.53C239.585 223.84 240.155 223.295 240.815 222.895C241.485 222.495 242.155 222.295 242.825 222.295C243.495 222.295 244.165 222.5 244.835 222.91C245.505 223.31 246.085 223.86 246.575 224.56V225.19C245.815 226.33 245.07 227.195 244.34 227.785H244.565ZM240.305 224.875C241.225 226.135 242.07 226.965 242.84 227.365C243.61 226.955 244.455 226.12 245.375 224.86C244.625 223.95 243.775 223.49 242.825 223.48C241.875 223.48 241.035 223.945 240.305 224.875ZM251.044 220.78C250.554 220.78 250.309 220.53 250.309 220.03C250.309 219.54 250.554 219.295 251.044 219.295C251.524 219.295 251.764 219.54 251.764 220.03C251.764 220.53 251.524 220.78 251.044 220.78ZM252.949 220.78C252.459 220.78 252.214 220.53 252.214 220.03C252.214 219.54 252.459 219.295 252.949 219.295C253.429 219.295 253.669 219.54 253.669 220.03C253.669 220.53 253.429 220.78 252.949 220.78ZM247.129 229V227.785H249.829C249.369 227.275 249.139 226.565 249.139 225.655C249.139 224.565 249.424 223.715 249.994 223.105C250.494 222.565 251.159 222.295 251.989 222.295C252.839 222.295 253.499 222.56 253.969 223.09C254.369 223.56 254.569 224.175 254.569 224.935V226.36C254.559 227.19 254.314 227.845 253.834 228.325C253.364 228.775 252.739 229 251.959 229H247.129ZM253.279 224.995C253.279 223.995 252.849 223.495 251.989 223.495C251.499 223.495 251.114 223.685 250.834 224.065C250.554 224.435 250.414 224.955 250.414 225.625C250.414 226.285 250.549 226.81 250.819 227.2C251.089 227.59 251.449 227.785 251.899 227.785C252.819 227.785 253.279 227.305 253.279 226.345V224.995ZM263.622 227.785V229H261.762C261.722 229.86 261.352 230.57 260.652 231.13C260.062 231.59 259.392 231.82 258.642 231.82C258.022 231.82 257.437 231.675 256.887 231.385V230.245C257.417 230.525 257.942 230.665 258.462 230.665C258.992 230.665 259.452 230.5 259.842 230.17C260.242 229.84 260.447 229.445 260.457 228.985C259.937 228.965 259.552 228.945 259.302 228.925C258.222 228.865 257.407 228.5 256.857 227.83C256.397 227.27 256.167 226.545 256.167 225.655C256.167 224.565 256.457 223.715 257.037 223.105C257.557 222.565 258.242 222.295 259.092 222.295C259.982 222.295 260.667 222.56 261.147 223.09C261.557 223.56 261.762 224.175 261.762 224.935V227.785H263.622ZM260.457 225.025C260.457 224.005 260.002 223.495 259.092 223.495C258.572 223.495 258.167 223.685 257.877 224.065C257.587 224.435 257.442 224.955 257.442 225.625C257.442 226.935 258.082 227.63 259.362 227.71C259.602 227.74 259.967 227.765 260.457 227.785V225.025ZM264.687 224.935C264.687 224.065 264.947 223.39 265.467 222.91C265.927 222.5 266.527 222.295 267.267 222.295C268.217 222.295 268.947 222.645 269.457 223.345C269.897 223.935 270.117 224.705 270.117 225.655C270.117 226.735 269.837 227.58 269.277 228.19C268.787 228.73 268.147 229 267.357 229C266.457 229 265.772 228.75 265.302 228.25C264.822 228.75 264.177 229 263.367 229H262.227V227.785H263.217C264.197 227.785 264.687 227.285 264.687 226.285V224.935ZM265.977 226.39C265.977 227.32 266.432 227.785 267.342 227.785C267.812 227.785 268.177 227.595 268.437 227.215C268.707 226.835 268.842 226.305 268.842 225.625C268.842 224.955 268.702 224.435 268.422 224.065C268.142 223.685 267.757 223.495 267.267 223.495C266.407 223.495 265.977 223.995 265.977 224.995V226.39ZM274.273 229.87V228.625C274.633 228.355 275.128 228.16 275.758 228.04C275.308 227.36 275.083 226.64 275.083 225.88C275.083 224.93 275.358 224.165 275.908 223.585C276.408 223.045 277.058 222.775 277.858 222.775C278.728 222.775 279.448 223.125 280.018 223.825V225.07C279.378 224.33 278.678 223.96 277.918 223.96C277.448 223.96 277.073 224.13 276.793 224.47C276.513 224.8 276.373 225.25 276.373 225.82C276.373 226.64 276.658 227.32 277.228 227.86C277.488 227.84 277.673 227.83 277.783 227.83C279.063 227.79 280.078 227.495 280.828 226.945V228.145C279.978 228.715 278.868 229 277.498 229C276.158 229 275.083 229.29 274.273 229.87ZM282.434 229V220.015L283.724 219.325V229H282.434ZM284.719 229L285.349 227.785H288.019C288.419 227.785 288.699 227.685 288.859 227.485C289.029 227.285 289.114 226.94 289.114 226.45C289.114 225.11 288.509 224.095 287.299 223.405L287.929 222.34C289.579 223.28 290.404 224.655 290.404 226.465C290.404 228.155 289.684 229 288.244 229H284.719ZM291.509 219.115L291.854 218.47H292.259C292.159 218.29 292.109 218.105 292.109 217.915C292.109 217.615 292.219 217.36 292.439 217.15C292.659 216.93 292.919 216.82 293.219 216.82C293.469 216.82 293.709 216.9 293.939 217.06V217.72C293.719 217.55 293.509 217.465 293.309 217.465C292.939 217.465 292.754 217.63 292.754 217.96C292.754 218.13 292.824 218.3 292.964 218.47H294.329L293.984 219.115H291.509ZM292.304 229V220.615L293.594 219.925V229H292.304ZM302.464 227.785H303.454V229H302.314C301.804 229 301.364 228.9 300.994 228.7C300.904 229.69 300.559 230.48 299.959 231.07C299.409 231.61 298.719 231.88 297.889 231.88C297.289 231.88 296.704 231.73 296.134 231.43V230.305C296.644 230.585 297.154 230.725 297.664 230.725C298.304 230.725 298.804 230.51 299.164 230.08C299.524 229.65 299.704 229.055 299.704 228.295V223.18L300.994 222.49V222.505L301.009 222.49V226.585C301.099 227.385 301.584 227.785 302.464 227.785ZM302.055 229V227.785H303.045C304.025 227.785 304.515 227.285 304.515 226.285V223.18L305.805 222.49V226.33C305.805 227.18 305.55 227.85 305.04 228.34C304.57 228.78 303.955 229 303.195 229H302.055ZM302.85 231.985C302.36 231.985 302.115 231.735 302.115 231.235C302.115 230.745 302.36 230.5 302.85 230.5C303.33 230.5 303.57 230.745 303.57 231.235C303.57 231.735 303.33 231.985 302.85 231.985ZM304.755 231.985C304.265 231.985 304.02 231.735 304.02 231.235C304.02 230.745 304.265 230.5 304.755 230.5C305.235 230.5 305.475 230.745 305.475 231.235C305.475 231.735 305.235 231.985 304.755 231.985ZM315.004 227.785V229H313.144C313.104 229.86 312.734 230.57 312.034 231.13C311.444 231.59 310.774 231.82 310.024 231.82C309.404 231.82 308.819 231.675 308.269 231.385V230.245C308.799 230.525 309.324 230.665 309.844 230.665C310.374 230.665 310.834 230.5 311.224 230.17C311.624 229.84 311.829 229.445 311.839 228.985C311.319 228.965 310.934 228.945 310.684 228.925C309.604 228.865 308.789 228.5 308.239 227.83C307.779 227.27 307.549 226.545 307.549 225.655C307.549 224.565 307.839 223.715 308.419 223.105C308.939 222.565 309.624 222.295 310.474 222.295C311.364 222.295 312.049 222.56 312.529 223.09C312.939 223.56 313.144 224.175 313.144 224.935V227.785H315.004ZM311.839 225.025C311.839 224.005 311.384 223.495 310.474 223.495C309.954 223.495 309.549 223.685 309.259 224.065C308.969 224.435 308.824 224.955 308.824 225.625C308.824 226.935 309.464 227.63 310.744 227.71C310.984 227.74 311.349 227.765 311.839 227.785V225.025ZM327.019 227.785H328.009V229H326.869C326.069 229 325.444 228.765 324.994 228.295C324.584 228.765 324.004 229 323.254 229H313.609V227.785H316.399L316.444 227.62V220.015L317.734 219.325V224.815C318.874 223.135 320.289 222.295 321.979 222.295C323.109 222.295 324.014 222.69 324.694 223.48C325.274 224.15 325.564 224.975 325.564 225.955V226.315C325.564 227.295 326.049 227.785 327.019 227.785ZM324.259 226.375V225.955C324.259 225.175 324.019 224.555 323.539 224.095C323.129 223.695 322.614 223.495 321.994 223.495C320.964 223.495 320.034 223.96 319.204 224.89C318.584 225.59 318.094 226.465 317.734 227.515V227.785H323.149C323.579 227.785 323.869 227.685 324.019 227.485C324.179 227.285 324.259 226.915 324.259 226.375ZM327.77 220.675C327.28 220.675 327.035 220.425 327.035 219.925C327.035 219.435 327.28 219.19 327.77 219.19C328.25 219.19 328.49 219.435 328.49 219.925C328.49 220.425 328.25 220.675 327.77 220.675ZM329.675 220.675C329.185 220.675 328.94 220.425 328.94 219.925C328.94 219.435 329.185 219.19 329.675 219.19C330.155 219.19 330.395 219.435 330.395 219.925C330.395 220.425 330.155 220.675 329.675 220.675ZM326.615 229V227.785H327.605C328.585 227.785 329.075 227.285 329.075 226.285V223.18L330.365 222.49V226.33C330.365 227.18 330.11 227.85 329.6 228.34C329.13 228.78 328.515 229 327.755 229H326.615Z" fill="black"/>
<path d="M184.511 287C184.442 287.745 184.052 288.348 183.341 288.807C182.657 289.249 181.777 289.47 180.702 289.47C179.368 289.47 178.362 289.08 177.686 288.3C177.184 287.719 176.932 287.004 176.932 286.155C176.932 285.41 177.123 284.768 177.504 284.231L178.349 284.062C177.933 284.695 177.725 285.371 177.725 286.09C177.725 286.887 177.998 287.524 178.544 288.001C179.064 288.46 179.784 288.69 180.702 288.69C181.647 288.69 182.388 288.491 182.925 288.092C183.324 287.797 183.558 287.433 183.627 287H182.301L182.717 286.194H184.55V287H184.511ZM179.883 291.615C179.528 291.615 179.35 291.437 179.35 291.082C179.35 290.727 179.528 290.549 179.883 290.549C180.221 290.549 180.39 290.727 180.39 291.082C180.39 291.437 180.221 291.615 179.883 291.615ZM181.365 291.615C181.019 291.615 180.845 291.437 180.845 291.082C180.845 290.727 181.019 290.549 181.365 290.549C181.712 290.549 181.885 290.727 181.885 291.082C181.885 291.437 181.712 291.615 181.365 291.615ZM185.881 279.72C185.526 279.72 185.348 279.538 185.348 279.174C185.348 278.827 185.526 278.654 185.881 278.654C186.219 278.654 186.388 278.827 186.388 279.174C186.388 279.538 186.219 279.72 185.881 279.72ZM183.619 287V286.194H184.074C185.027 286.194 185.504 285.7 185.504 284.712V281.891L186.375 281.436V284.738C186.375 285.466 186.163 286.034 185.738 286.441C185.348 286.814 184.828 287 184.178 287H183.619ZM191.543 286.519C191.179 286.727 190.711 286.831 190.139 286.831C189.385 286.831 188.796 286.541 188.371 285.96C188.007 285.466 187.825 284.842 187.825 284.088C187.825 283.178 188.068 282.467 188.553 281.956C188.978 281.505 189.541 281.28 190.243 281.28C190.962 281.28 191.517 281.505 191.907 281.956C192.245 282.346 192.414 282.866 192.414 283.516V286.376C192.414 287.182 192.245 287.845 191.907 288.365C191.569 288.894 191.088 289.232 190.464 289.379C190.256 289.44 190.031 289.47 189.788 289.47C189.285 289.47 188.796 289.349 188.319 289.106V288.339C188.77 288.582 189.216 288.703 189.658 288.703C190.013 288.703 190.325 288.625 190.594 288.469C191.201 288.166 191.517 287.516 191.543 286.519ZM191.543 283.594C191.543 282.58 191.11 282.073 190.243 282.073C189.758 282.073 189.372 282.251 189.086 282.606C188.809 282.961 188.67 283.451 188.67 284.075C188.67 284.682 188.804 285.167 189.073 285.531C189.342 285.886 189.706 286.064 190.165 286.064C190.85 286.064 191.309 285.873 191.543 285.492V283.594ZM198.123 286.194H198.578V287H198.019C197.481 287 197.035 286.87 196.68 286.61C196.61 288.049 196.03 288.959 194.938 289.34C194.66 289.435 194.366 289.483 194.054 289.483C193.551 289.483 193.066 289.362 192.598 289.119V288.352C193.04 288.595 193.49 288.716 193.95 288.716C194.314 288.716 194.634 288.634 194.912 288.469C195.518 288.105 195.822 287.425 195.822 286.428V281.891L196.68 281.436V281.449L196.693 281.436V284.712C196.693 285.7 197.169 286.194 198.123 286.194ZM199.136 279.759C198.789 279.759 198.616 279.581 198.616 279.226C198.616 278.871 198.789 278.693 199.136 278.693C199.483 278.693 199.656 278.871 199.656 279.226C199.656 279.581 199.483 279.759 199.136 279.759ZM200.618 279.759C200.271 279.759 200.098 279.581 200.098 279.226C200.098 278.871 200.271 278.693 200.618 278.693C200.965 278.693 201.138 278.871 201.138 279.226C201.138 279.581 200.965 279.759 200.618 279.759ZM202.009 286.194H202.464V287H201.905C201.125 287 200.54 286.736 200.15 286.207C199.743 286.736 199.153 287 198.382 287H197.823V286.194H198.278C199.231 286.194 199.708 285.7 199.708 284.712V281.891L200.579 281.436V284.712C200.579 285.7 201.056 286.194 202.009 286.194ZM208.606 286.194H208.931V287H208.502C207.722 287 207.137 286.736 206.747 286.207C206.357 286.736 205.768 287 204.979 287H201.703V286.194H204.888C205.833 286.194 206.305 285.687 206.305 284.673V284.543C206.305 283.832 206.045 283.299 205.525 282.944C205.109 282.649 204.589 282.502 203.965 282.502C203.497 282.502 203.033 282.584 202.574 282.749V281.891L205.525 278.615H206.422L203.757 281.631C203.844 281.622 203.935 281.618 204.03 281.618C204.862 281.618 205.555 281.83 206.11 282.255C206.821 282.801 207.176 283.559 207.176 284.53V284.712C207.176 285.7 207.653 286.194 208.606 286.194ZM208.173 287V286.194H208.537C209.525 286.194 210.019 285.683 210.019 284.66V279.07L210.89 278.615V284.673C210.89 285.41 210.673 285.99 210.24 286.415C209.832 286.805 209.295 287 208.628 287H208.173ZM217.476 279.07L218.334 278.615V284.673C218.334 285.41 218.117 285.99 217.684 286.415C217.285 286.805 216.752 287 216.085 287H211.821L212.237 286.194H214.226V280.76L215.084 280.305V286.194H215.994C216.982 286.194 217.476 285.683 217.476 284.66V279.07ZM220.178 287V279.07L221.049 278.615V287H220.178ZM235.9 286.194H236.342V287H235.783C235.003 287 234.418 286.736 234.028 286.207C233.638 286.736 233.048 287 232.26 287H227.619C226.977 287 226.466 286.801 226.085 286.402C225.703 285.995 225.513 285.449 225.513 284.764V283.061L226.384 282.606V284.66C226.384 285.683 226.86 286.194 227.814 286.194H232.169C233.113 286.194 233.586 285.683 233.586 284.66V279.07L234.457 278.615V284.712C234.457 285.7 234.938 286.194 235.9 286.194ZM229.933 280.799C230.288 280.799 230.57 280.894 230.778 281.085C230.986 281.276 231.09 281.531 231.09 281.852C231.09 282.138 231.003 282.368 230.83 282.541C230.665 282.706 230.444 282.788 230.167 282.788H228.555L228.802 282.333H230.128C230.457 282.333 230.622 282.168 230.622 281.839C230.622 281.44 230.37 281.241 229.868 281.241C229.608 281.241 229.387 281.293 229.205 281.397V280.955L230.271 279.759H230.817L229.92 280.799H229.933ZM244.865 287H241.654C241.186 287 240.709 286.9 240.224 286.701C239.73 286.9 239.249 287 238.781 287H235.583V286.194H238.729C238.902 286.194 239.08 286.181 239.262 286.155C238.577 285.661 237.832 284.846 237.026 283.711V283.178C237.927 281.913 238.989 281.28 240.211 281.28C241.424 281.28 242.49 281.921 243.409 283.204V283.711C242.603 284.846 241.862 285.661 241.186 286.155C241.359 286.181 241.533 286.194 241.706 286.194H244.852L244.865 287ZM237.78 283.451C238.69 284.664 239.5 285.453 240.211 285.817C240.913 285.453 241.728 284.66 242.655 283.438C241.962 282.528 241.147 282.073 240.211 282.073H240.172C239.288 282.073 238.491 282.532 237.78 283.451ZM247.294 279.759C246.939 279.759 246.761 279.577 246.761 279.213C246.761 278.866 246.939 278.693 247.294 278.693C247.632 278.693 247.801 278.866 247.801 279.213C247.801 279.577 247.632 279.759 247.294 279.759ZM248.776 279.759C248.421 279.759 248.243 279.577 248.243 279.213C248.243 278.866 248.421 278.693 248.776 278.693C249.114 278.693 249.283 278.866 249.283 279.213C249.283 279.577 249.114 279.759 248.776 279.759ZM244.109 287V286.194H246.319C245.843 285.717 245.604 285.033 245.604 284.14C245.604 283.204 245.847 282.48 246.332 281.969C246.757 281.51 247.32 281.28 248.022 281.28C248.742 281.28 249.296 281.505 249.686 281.956C250.024 282.346 250.193 282.866 250.193 283.516V284.777C250.185 285.479 249.972 286.029 249.556 286.428C249.175 286.809 248.655 287 247.996 287H244.109ZM249.335 283.594C249.335 282.58 248.898 282.073 248.022 282.073C247.537 282.073 247.156 282.255 246.878 282.619C246.61 282.974 246.475 283.477 246.475 284.127C246.475 284.76 246.605 285.262 246.865 285.635C247.134 286.008 247.489 286.194 247.931 286.194C248.867 286.194 249.335 285.709 249.335 284.738V283.594ZM257.611 286.194V287H256.233C256.225 287.572 256.038 288.075 255.674 288.508C255.319 288.95 254.855 289.24 254.283 289.379C254.075 289.44 253.85 289.47 253.607 289.47C253.105 289.47 252.615 289.349 252.138 289.106V288.339C252.589 288.582 253.035 288.703 253.477 288.703C253.833 288.703 254.145 288.625 254.413 288.469C254.682 288.33 254.907 288.118 255.089 287.832C255.271 287.555 255.362 287.277 255.362 287L254.257 286.961C253.295 286.918 252.576 286.614 252.099 286.051C251.709 285.574 251.514 284.937 251.514 284.14C251.514 283.204 251.757 282.48 252.242 281.969C252.676 281.51 253.256 281.28 253.984 281.28C254.738 281.28 255.315 281.505 255.713 281.956C256.06 282.346 256.233 282.866 256.233 283.516V286.194H257.611ZM255.362 283.607C255.362 282.584 254.903 282.073 253.984 282.073C253.473 282.073 253.074 282.255 252.788 282.619C252.511 282.974 252.372 283.477 252.372 284.127C252.372 285.418 253.009 286.094 254.283 286.155C254.665 286.181 255.024 286.194 255.362 286.194V283.607ZM265.023 286.194H265.465V287H264.906C264.117 287 263.528 286.727 263.138 286.181C262.704 286.9 262.046 287.26 261.162 287.26C260.269 287.26 259.61 286.905 259.186 286.194C258.787 286.731 258.193 287 257.405 287H256.846V286.194H257.301C258.254 286.194 258.731 285.7 258.731 284.712V284.27C258.731 283.273 258.973 282.511 259.459 281.982C259.883 281.514 260.451 281.28 261.162 281.28C261.976 281.28 262.596 281.583 263.021 282.19C263.393 282.71 263.58 283.403 263.58 284.27V284.712C263.58 285.7 264.061 286.194 265.023 286.194ZM261.162 286.454C261.638 286.454 262.015 286.259 262.293 285.869C262.57 285.47 262.709 284.933 262.709 284.257C262.709 282.801 262.193 282.073 261.162 282.073C260.122 282.073 259.602 282.801 259.602 284.257C259.602 285.722 260.122 286.454 261.162 286.454ZM264.699 287V286.194H265.063C266.051 286.194 266.545 285.683 266.545 284.66V279.07L267.416 278.615V284.673C267.416 285.41 267.199 285.99 266.766 286.415C266.359 286.805 265.821 287 265.154 287H264.699ZM278.315 286.298C278.315 287.303 277.973 288.101 277.288 288.69C276.673 289.21 275.888 289.47 274.935 289.47C273.808 289.47 272.942 289.084 272.335 288.313C271.858 287.715 271.62 287 271.62 286.168C271.62 285.414 271.811 284.777 272.192 284.257L273.05 284.062C272.625 284.686 272.413 285.371 272.413 286.116C272.413 286.879 272.66 287.503 273.154 287.988C273.622 288.447 274.216 288.677 274.935 288.677C275.767 288.677 276.413 288.426 276.872 287.923C277.262 287.507 277.457 286.965 277.457 286.298V279.07L278.315 278.615V286.298ZM285.859 286.194V287H284.481C284.473 287.572 284.286 288.075 283.922 288.508C283.567 288.95 283.103 289.24 282.531 289.379C282.323 289.44 282.098 289.47 281.855 289.47C281.353 289.47 280.863 289.349 280.386 289.106V288.339C280.837 288.582 281.283 288.703 281.725 288.703C282.081 288.703 282.393 288.625 282.661 288.469C282.93 288.33 283.155 288.118 283.337 287.832C283.519 287.555 283.61 287.277 283.61 287L282.505 286.961C281.543 286.918 280.824 286.614 280.347 286.051C279.957 285.574 279.762 284.937 279.762 284.14C279.762 283.204 280.005 282.48 280.49 281.969C280.924 281.51 281.504 281.28 282.232 281.28C282.986 281.28 283.563 281.505 283.961 281.956C284.308 282.346 284.481 282.866 284.481 283.516V286.194H285.859ZM283.61 283.607C283.61 282.584 283.151 282.073 282.232 282.073C281.721 282.073 281.322 282.255 281.036 282.619C280.759 282.974 280.62 283.477 280.62 284.127C280.62 285.418 281.257 286.094 282.531 286.155C282.913 286.181 283.272 286.194 283.61 286.194V283.607ZM288.799 286.142C289.119 284.807 289.678 283.689 290.476 282.788C291.368 281.783 292.417 281.28 293.622 281.28C294.592 281.28 295.364 281.614 295.936 282.281C296.421 282.853 296.664 283.559 296.664 284.4V284.764C296.664 285.501 296.438 286.073 295.988 286.48C295.606 286.827 295.099 287 294.467 287H289.176C288.396 287 287.811 286.736 287.421 286.207C287.013 286.736 286.424 287 285.653 287H285.094V286.194H285.549C286.502 286.194 286.979 285.7 286.979 284.712V282.84L287.85 282.385V284.712C287.85 285.527 288.166 286.003 288.799 286.142ZM295.793 284.66V284.4C295.793 283.672 295.563 283.087 295.104 282.645C294.714 282.264 294.224 282.073 293.635 282.073C292.621 282.073 291.719 282.55 290.931 283.503C290.333 284.231 289.882 285.128 289.579 286.194H294.402C295.329 286.194 295.793 285.683 295.793 284.66ZM303.979 286.194V287H302.601C302.592 287.572 302.406 288.075 302.042 288.508C301.686 288.95 301.223 289.24 300.651 289.379C300.443 289.44 300.217 289.47 299.975 289.47C299.472 289.47 298.982 289.349 298.506 289.106V288.339C298.956 288.582 299.403 288.703 299.845 288.703C300.2 288.703 300.512 288.625 300.781 288.469C301.049 288.33 301.275 288.118 301.457 287.832C301.639 287.555 301.73 287.277 301.73 287L300.625 286.961C299.663 286.918 298.943 286.614 298.467 286.051C298.077 285.574 297.882 284.937 297.882 284.14C297.882 283.204 298.124 282.48 298.61 281.969C299.043 281.51 299.624 281.28 300.352 281.28C301.106 281.28 301.682 281.505 302.081 281.956C302.427 282.346 302.601 282.866 302.601 283.516V286.194H303.979ZM301.73 283.607C301.73 282.584 301.27 282.073 300.352 282.073C299.84 282.073 299.442 282.255 299.156 282.619C298.878 282.974 298.74 283.477 298.74 284.127C298.74 285.418 299.377 286.094 300.651 286.155C301.032 286.181 301.392 286.194 301.73 286.194V283.607ZM303.213 287V286.194H303.577C304.565 286.194 305.059 285.683 305.059 284.66V279.07L305.93 278.615V284.673C305.93 285.41 305.713 285.99 305.28 286.415C304.872 286.805 304.335 287 303.668 287H303.213ZM307.771 287V279.07L308.642 278.615V287H307.771ZM314.458 279.655C314.111 279.655 313.938 279.473 313.938 279.109C313.938 278.762 314.111 278.589 314.458 278.589C314.804 278.589 314.978 278.762 314.978 279.109C314.978 279.473 314.804 279.655 314.458 279.655ZM315.94 279.655C315.593 279.655 315.42 279.473 315.42 279.109C315.42 278.762 315.593 278.589 315.94 278.589C316.286 278.589 316.46 278.762 316.46 279.109C316.46 279.473 316.286 279.655 315.94 279.655ZM315.225 287C314.453 287 313.851 286.744 313.418 286.233C313.054 285.791 312.872 285.219 312.872 284.517C312.872 282.914 313.678 281.835 315.29 281.28C316.902 281.835 317.708 282.914 317.708 284.517C317.708 285.323 317.469 285.951 316.993 286.402C316.577 286.801 316.031 287 315.355 287H315.225ZM315.186 286.194H315.394C315.844 286.194 316.2 286.047 316.46 285.752C316.72 285.449 316.85 285.037 316.85 284.517C316.85 283.364 316.33 282.55 315.29 282.073C314.25 282.55 313.73 283.364 313.73 284.517C313.73 285.028 313.86 285.436 314.12 285.739C314.38 286.042 314.735 286.194 315.186 286.194ZM318.218 287L318.634 286.194H321.078C321.477 286.194 321.754 286.094 321.91 285.895C322.075 285.696 322.157 285.349 322.157 284.855C322.157 283.59 321.602 282.641 320.493 282.008L320.909 281.293C322.322 282.116 323.028 283.308 323.028 284.868C323.028 286.289 322.426 287 321.221 287H318.218ZM326.795 287C326.058 287 325.49 286.762 325.092 286.285C324.762 285.878 324.598 285.362 324.598 284.738V279.07L325.469 278.615V284.712C325.469 285.7 325.945 286.194 326.899 286.194H327.354V287H326.795ZM326.594 287V286.194H327.049C328.002 286.194 328.479 285.7 328.479 284.712V281.891L329.35 281.436V284.738C329.35 285.466 329.137 286.034 328.713 286.441C328.323 286.814 327.803 287 327.153 287H326.594ZM327.023 289.431C326.667 289.431 326.49 289.249 326.49 288.885C326.49 288.538 326.667 288.365 327.023 288.365C327.361 288.365 327.53 288.538 327.53 288.885C327.53 289.249 327.361 289.431 327.023 289.431ZM328.505 289.431C328.149 289.431 327.972 289.249 327.972 288.885C327.972 288.538 328.149 288.365 328.505 288.365C328.843 288.365 329.012 288.538 329.012 288.885C329.012 289.249 328.843 289.431 328.505 289.431ZM333.236 279.72C332.881 279.72 332.703 279.538 332.703 279.174C332.703 278.827 332.881 278.654 333.236 278.654C333.574 278.654 333.743 278.827 333.743 279.174C333.743 279.538 333.574 279.72 333.236 279.72ZM333.743 286.376C333.743 287.953 333.162 288.941 332.001 289.34C331.724 289.435 331.429 289.483 331.117 289.483C330.614 289.483 330.129 289.362 329.661 289.119V288.352C330.103 288.595 330.554 288.716 331.013 288.716C331.377 288.716 331.698 288.634 331.975 288.469C332.582 288.105 332.885 287.425 332.885 286.428V281.891L333.743 281.436V286.376ZM345.519 287C345.45 287.745 345.06 288.348 344.349 288.807C343.665 289.249 342.785 289.47 341.71 289.47C340.376 289.47 339.37 289.08 338.694 288.3C338.192 287.719 337.94 287.004 337.94 286.155C337.94 285.41 338.131 284.768 338.512 284.231L339.357 284.062C338.941 284.695 338.733 285.371 338.733 286.09C338.733 286.887 339.006 287.524 339.552 288.001C340.072 288.46 340.792 288.69 341.71 288.69C342.655 288.69 343.396 288.491 343.933 288.092C344.332 287.797 344.566 287.433 344.635 287H343.309L343.725 286.194H345.558V287H345.519ZM348.774 286.194H349.229V287H348.67C347.873 287 347.279 286.727 346.889 286.181C346.482 286.727 345.879 287 345.082 287H344.627V286.194H344.991C345.979 286.194 346.473 285.683 346.473 284.66V279.07L347.344 278.615V284.712C347.344 285.7 347.821 286.194 348.774 286.194ZM355.125 286.194V287H348.469V286.194H350.653C350.107 285.639 349.834 284.903 349.834 283.984C349.834 283.109 350.133 282.415 350.731 281.904C351.207 281.497 351.766 281.289 352.408 281.28C353.3 281.28 353.998 281.631 354.501 282.333V283.191C353.981 282.446 353.313 282.073 352.499 282.073H352.46C351.94 282.073 351.515 282.251 351.186 282.606C350.865 282.961 350.705 283.429 350.705 284.01C350.705 284.677 350.904 285.21 351.303 285.609C351.684 285.999 352.195 286.194 352.837 286.194H355.125ZM366.982 286.194H367.437V287H366.878C366.323 287 365.859 286.861 365.487 286.584C365.417 287.503 365.049 288.226 364.382 288.755C363.784 289.232 363.03 289.47 362.12 289.47C360.993 289.47 360.126 289.084 359.52 288.313C359.043 287.715 358.805 287 358.805 286.168C358.805 285.414 358.995 284.777 359.377 284.257L360.235 284.062C359.81 284.686 359.598 285.371 359.598 286.116C359.598 286.879 359.845 287.503 360.339 287.988C360.807 288.447 361.4 288.677 362.12 288.677C362.952 288.677 363.597 288.426 364.057 287.923C364.447 287.507 364.642 286.965 364.642 286.298V279.07L365.5 278.615V284.725V284.751C365.5 285.713 365.994 286.194 366.982 286.194ZM374.849 286.194H375.291V287H374.732C373.943 287 373.354 286.727 372.964 286.181C372.53 286.9 371.872 287.26 370.988 287.26C370.095 287.26 369.436 286.905 369.012 286.194C368.613 286.731 368.019 287 367.231 287H366.672V286.194H367.127C368.08 286.194 368.557 285.7 368.557 284.712V284.27C368.557 283.273 368.799 282.511 369.285 281.982C369.709 281.514 370.277 281.28 370.988 281.28C371.802 281.28 372.422 281.583 372.847 282.19C373.219 282.71 373.406 283.403 373.406 284.27V284.712C373.406 285.7 373.887 286.194 374.849 286.194ZM370.988 286.454C371.464 286.454 371.841 286.259 372.119 285.869C372.396 285.47 372.535 284.933 372.535 284.257C372.535 282.801 372.019 282.073 370.988 282.073C369.948 282.073 369.428 282.801 369.428 284.257C369.428 285.722 369.948 286.454 370.988 286.454ZM383.807 287H380.596C380.128 287 379.652 286.9 379.166 286.701C378.672 286.9 378.191 287 377.723 287H374.525V286.194H377.671C377.845 286.194 378.022 286.181 378.204 286.155C377.52 285.661 376.774 284.846 375.968 283.711V283.178C376.87 281.913 377.931 281.28 379.153 281.28C380.367 281.28 381.433 281.921 382.351 283.204V283.711C381.545 284.846 380.804 285.661 380.128 286.155C380.302 286.181 380.475 286.194 380.648 286.194H383.794L383.807 287ZM376.722 283.451C377.632 284.664 378.443 285.453 379.153 285.817C379.855 285.453 380.67 284.66 381.597 283.438C380.904 282.528 380.089 282.073 379.153 282.073H379.114C378.23 282.073 377.433 282.532 376.722 283.451ZM385.314 279.72C384.958 279.72 384.781 279.538 384.781 279.174C384.781 278.827 384.958 278.654 385.314 278.654C385.652 278.654 385.821 278.827 385.821 279.174C385.821 279.538 385.652 279.72 385.314 279.72ZM383.052 287V286.194H383.507C384.46 286.194 384.937 285.7 384.937 284.712V281.891L385.808 281.436V284.738C385.808 285.466 385.595 286.034 385.171 286.441C384.781 286.814 384.261 287 383.611 287H383.052ZM205.295 300.955C204.949 300.955 204.775 300.773 204.775 300.409C204.775 300.062 204.949 299.889 205.295 299.889C205.642 299.889 205.815 300.062 205.815 300.409C205.815 300.773 205.642 300.955 205.295 300.955ZM206.79 300.955C206.435 300.955 206.257 300.773 206.257 300.409C206.257 300.062 206.435 299.889 206.79 299.889C207.128 299.889 207.297 300.062 207.297 300.409C207.297 300.773 207.128 300.955 206.79 300.955ZM203.956 307C203.315 307 202.804 306.801 202.422 306.402C202.041 305.995 201.85 305.449 201.85 304.764V303.061L202.721 302.606V304.66C202.721 305.683 203.198 306.194 204.151 306.194H208.506C209.46 306.194 209.936 305.683 209.936 304.66V301.891L210.807 301.436V304.764C210.807 305.501 210.582 306.073 210.131 306.48C209.741 306.827 209.23 307 208.597 307H203.956ZM214.846 307C214.109 307 213.542 306.762 213.143 306.285C212.814 305.878 212.649 305.362 212.649 304.738V299.07L213.52 298.615V304.712C213.52 305.7 213.997 306.194 214.95 306.194H215.405V307H214.846ZM218.831 306.194H219.286V307H218.727C217.947 307 217.362 306.736 216.972 306.207C216.565 306.736 215.975 307 215.204 307H214.645V306.194H215.1C216.053 306.194 216.53 305.7 216.53 304.712V301.891L217.401 301.436V304.712C217.401 305.7 217.878 306.194 218.831 306.194ZM215.88 308.365C216.227 308.365 216.4 308.543 216.4 308.898C216.4 309.253 216.227 309.431 215.88 309.431C215.533 309.431 215.36 309.253 215.36 308.898C215.36 308.543 215.533 308.365 215.88 308.365ZM217.362 308.365C217.709 308.365 217.882 308.543 217.882 308.898C217.882 309.253 217.709 309.431 217.362 309.431C217.015 309.431 216.842 309.253 216.842 308.898C216.842 308.543 217.015 308.365 217.362 308.365ZM220.696 299.72C220.34 299.72 220.163 299.538 220.163 299.174C220.163 298.827 220.34 298.654 220.696 298.654C221.034 298.654 221.203 298.827 221.203 299.174C221.203 299.538 221.034 299.72 220.696 299.72ZM222.711 306.194H223.166V307H222.607C221.827 307 221.242 306.736 220.852 306.207C220.444 306.736 219.855 307 219.084 307H218.525V306.194H218.98C219.933 306.194 220.41 305.7 220.41 304.712V301.891L221.281 301.436V304.712C221.281 305.7 221.757 306.194 222.711 306.194ZM225.421 299.759C225.065 299.759 224.888 299.577 224.888 299.213C224.888 298.866 225.065 298.693 225.421 298.693C225.759 298.693 225.928 298.866 225.928 299.213C225.928 299.577 225.759 299.759 225.421 299.759ZM226.903 299.759C226.547 299.759 226.37 299.577 226.37 299.213C226.37 298.866 226.547 298.693 226.903 298.693C227.241 298.693 227.41 298.866 227.41 299.213C227.41 299.577 227.241 299.759 226.903 299.759ZM227.514 306.194H229.893V307H226.955C226.66 307 226.391 306.97 226.149 306.909C225.906 306.97 225.637 307 225.343 307H222.405V306.194H224.797C224.112 305.561 223.77 304.812 223.77 303.945C223.77 303.104 224.004 302.437 224.472 301.943C224.896 301.501 225.455 301.28 226.149 301.28C226.937 301.28 227.548 301.566 227.982 302.138C228.346 302.615 228.528 303.217 228.528 303.945C228.528 304.82 228.19 305.57 227.514 306.194ZM226.201 306.077C226.643 305.921 227.002 305.644 227.28 305.245C227.566 304.838 227.709 304.4 227.709 303.932C227.709 303.36 227.566 302.909 227.28 302.58C227.002 302.242 226.625 302.073 226.149 302.073C225.672 302.073 225.295 302.242 225.018 302.58C224.74 302.909 224.602 303.356 224.602 303.919C224.602 304.396 224.74 304.838 225.018 305.245C225.295 305.644 225.655 305.921 226.097 306.077L226.149 306.09L226.175 306.077H226.201ZM230.441 299.759C230.095 299.759 229.921 299.581 229.921 299.226C229.921 298.871 230.095 298.693 230.441 298.693C230.788 298.693 230.961 298.871 230.961 299.226C230.961 299.581 230.788 299.759 230.441 299.759ZM231.923 299.759C231.577 299.759 231.403 299.581 231.403 299.226C231.403 298.871 231.577 298.693 231.923 298.693C232.27 298.693 232.443 298.871 232.443 299.226C232.443 299.581 232.27 299.759 231.923 299.759ZM233.314 306.194H233.769V307H233.21C232.43 307 231.845 306.736 231.455 306.207C231.048 306.736 230.459 307 229.687 307H229.128V306.194H229.583C230.537 306.194 231.013 305.7 231.013 304.712V301.891L231.884 301.436V304.712C231.884 305.7 232.361 306.194 233.314 306.194ZM233.008 307V306.194H233.372C234.36 306.194 234.854 305.683 234.854 304.66V299.07L235.725 298.615V304.673C235.725 305.41 235.509 305.99 235.075 306.415C234.668 306.805 234.131 307 233.463 307H233.008ZM237.566 307V299.07L238.437 298.615V307H237.566ZM247.152 299.603C246.814 299.603 246.645 299.425 246.645 299.07C246.645 298.732 246.814 298.563 247.152 298.563C247.481 298.563 247.646 298.732 247.646 299.07C247.646 299.425 247.481 299.603 247.152 299.603ZM246.411 300.955C246.064 300.955 245.891 300.773 245.891 300.409C245.891 300.062 246.064 299.889 246.411 299.889C246.758 299.889 246.931 300.062 246.931 300.409C246.931 300.773 246.758 300.955 246.411 300.955ZM247.906 300.955C247.551 300.955 247.373 300.773 247.373 300.409C247.373 300.062 247.551 299.889 247.906 299.889C248.244 299.889 248.413 300.062 248.413 300.409C248.413 300.773 248.244 300.955 247.906 300.955ZM245.007 307C244.366 307 243.854 306.801 243.473 306.402C243.092 305.995 242.901 305.449 242.901 304.764V303.061L243.772 302.606V304.66C243.772 305.683 244.249 306.194 245.202 306.194H249.557C250.51 306.194 250.987 305.683 250.987 304.66V301.891L251.858 301.436V304.764C251.858 305.501 251.633 306.073 251.182 306.48C250.792 306.827 250.281 307 249.648 307H245.007ZM252.66 307L253.076 306.194H255.52C255.918 306.194 256.196 306.094 256.352 305.895C256.516 305.696 256.599 305.349 256.599 304.855C256.599 303.581 256.04 302.632 254.922 302.008L255.351 301.293C256.729 302.09 257.431 303.213 257.457 304.66C257.465 305.683 257.964 306.194 258.952 306.194H259.355V307H258.861C258.107 307 257.53 306.749 257.132 306.246C256.837 306.749 256.347 307 255.663 307H252.66ZM258.59 307V306.194H260.046C261.936 306.194 263.409 305.553 264.466 304.27C263.695 302.797 262.763 302.06 261.671 302.06C260.926 302.06 260.198 302.437 259.487 303.191V302.333C260.198 301.631 260.939 301.28 261.71 301.28H261.736C263.097 301.28 264.276 302.199 265.272 304.036V304.569C264.007 306.19 262.261 307 260.033 307H258.59ZM266.588 307V299.07L267.459 298.615V307H266.588ZM273.171 306.194C272.764 305.674 272.56 304.989 272.56 304.14C272.56 303.204 272.803 302.48 273.288 301.969C273.713 301.51 274.276 301.28 274.978 301.28C275.698 301.28 276.252 301.505 276.642 301.956C276.98 302.346 277.149 302.866 277.149 303.516V304.842C277.149 305.501 276.954 306.025 276.564 306.415C276.174 306.796 275.641 306.991 274.965 307H273.314C272.361 307 271.884 307.494 271.884 308.482V310.64L271.013 311.095V308.456C271.013 307.737 271.226 307.173 271.65 306.766C272.032 306.393 272.539 306.203 273.171 306.194ZM276.278 304.764V303.594C276.278 302.58 275.845 302.073 274.978 302.073C274.484 302.073 274.099 302.255 273.821 302.619C273.553 302.983 273.418 303.486 273.418 304.127C273.418 304.777 273.548 305.284 273.808 305.648C274.068 306.012 274.428 306.194 274.887 306.194C275.815 306.194 276.278 305.717 276.278 304.764ZM278.863 307V299.07L279.734 298.615V307H278.863ZM280.535 307L280.951 306.194H283.395C283.793 306.194 284.071 306.094 284.227 305.895C284.391 305.696 284.474 305.349 284.474 304.855C284.474 303.581 283.915 302.632 282.797 302.008L283.226 301.293C284.604 302.09 285.306 303.213 285.332 304.66C285.34 305.683 285.839 306.194 286.827 306.194H287.23V307H286.736C285.982 307 285.405 306.749 285.007 306.246C284.712 306.749 284.222 307 283.538 307H280.535ZM290.105 299.72C289.75 299.72 289.572 299.538 289.572 299.174C289.572 298.827 289.75 298.654 290.105 298.654C290.443 298.654 290.612 298.827 290.612 299.174C290.612 299.538 290.443 299.72 290.105 299.72ZM294.681 306.194H295.136V307H294.668C293.949 307 293.373 306.918 292.939 306.753C292.515 306.588 292.12 306.298 291.756 305.882C290.647 306.627 289.364 307 287.908 307H286.465V306.194H287.921C289.811 306.194 291.284 305.553 292.341 304.27C291.57 302.797 290.638 302.06 289.546 302.06C288.801 302.06 288.073 302.437 287.362 303.191V302.333C288.073 301.631 288.814 301.28 289.585 301.28H289.611C290.972 301.28 292.151 302.199 293.147 304.036V304.569C292.879 304.916 292.593 305.215 292.289 305.466C292.567 305.735 292.879 305.925 293.225 306.038C293.581 306.142 294.066 306.194 294.681 306.194ZM295.695 299.759C295.349 299.759 295.175 299.581 295.175 299.226C295.175 298.871 295.349 298.693 295.695 298.693C296.042 298.693 296.215 298.871 296.215 299.226C296.215 299.581 296.042 299.759 295.695 299.759ZM297.177 299.759C296.831 299.759 296.657 299.581 296.657 299.226C296.657 298.871 296.831 298.693 297.177 298.693C297.524 298.693 297.697 298.871 297.697 299.226C297.697 299.581 297.524 299.759 297.177 299.759ZM298.568 306.194H299.023V307H298.464C297.684 307 297.099 306.736 296.709 306.207C296.302 306.736 295.713 307 294.941 307H294.382V306.194H294.837C295.791 306.194 296.267 305.7 296.267 304.712V301.891L297.138 301.436V304.712C297.138 305.7 297.615 306.194 298.568 306.194ZM298.262 307V306.194H299.055C300.017 306.194 300.498 305.7 300.498 304.712V302.84L301.369 302.385V304.712C301.369 305.7 301.846 306.194 302.799 306.194H303.28C304.233 306.194 304.71 305.7 304.71 304.712V302.372L305.581 301.904V304.712C305.581 305.7 306.062 306.194 307.024 306.194H307.492C308.454 306.194 308.935 305.7 308.935 304.712V301.891L309.806 301.436V304.738C309.806 305.457 309.594 306.021 309.169 306.428C308.788 306.801 308.272 306.991 307.622 307H306.907C306.101 307 305.516 306.714 305.152 306.142C304.779 306.714 304.199 307 303.41 307H302.695C301.889 307 301.3 306.714 300.927 306.142C300.563 306.714 299.978 307 299.172 307H298.262ZM313.84 307C313.103 307 312.536 306.762 312.137 306.285C311.808 305.878 311.643 305.362 311.643 304.738V299.07L312.514 298.615V304.712C312.514 305.7 312.991 306.194 313.944 306.194H314.399V307H313.84ZM313.639 307V306.194H314.094C315.047 306.194 315.524 305.7 315.524 304.712V301.891L316.395 301.436V304.738C316.395 305.466 316.183 306.034 315.758 306.441C315.368 306.814 314.848 307 314.198 307H313.639ZM315.368 309.431C315.013 309.431 314.835 309.249 314.835 308.885C314.835 308.538 315.013 308.365 315.368 308.365C315.706 308.365 315.875 308.538 315.875 308.885C315.875 309.249 315.706 309.431 315.368 309.431ZM331.245 306.194H331.687V307H331.128C330.348 307 329.763 306.736 329.373 306.207C328.983 306.736 328.394 307 327.605 307H322.964C322.323 307 321.811 306.801 321.43 306.402C321.049 305.995 320.858 305.449 320.858 304.764V303.061L321.729 302.606V304.66C321.729 305.683 322.206 306.194 323.159 306.194H327.514C328.459 306.194 328.931 305.683 328.931 304.66V299.07L329.802 298.615V304.712C329.802 305.7 330.283 306.194 331.245 306.194ZM325.278 300.799C325.633 300.799 325.915 300.894 326.123 301.085C326.331 301.276 326.435 301.531 326.435 301.852C326.435 302.138 326.348 302.368 326.175 302.541C326.01 302.706 325.789 302.788 325.512 302.788H323.9L324.147 302.333H325.473C325.802 302.333 325.967 302.168 325.967 301.839C325.967 301.44 325.716 301.241 325.213 301.241C324.953 301.241 324.732 301.293 324.55 301.397V300.955L325.616 299.759H326.162L325.265 300.799H325.278ZM331.747 299.694L331.994 299.239H332.332C332.245 299.083 332.202 298.923 332.202 298.758C332.202 298.515 332.293 298.307 332.475 298.134C332.657 297.952 332.874 297.861 333.125 297.861C333.316 297.861 333.502 297.922 333.684 298.043V298.524C333.511 298.403 333.342 298.342 333.177 298.342C333.038 298.342 332.921 298.39 332.826 298.485C332.731 298.572 332.683 298.676 332.683 298.797C332.683 298.944 332.744 299.092 332.865 299.239H334.009L333.762 299.694H331.747ZM330.928 307V306.194H331.383C332.336 306.194 332.813 305.7 332.813 304.712V301.891L333.684 301.436V304.738C333.684 305.466 333.472 306.034 333.047 306.441C332.657 306.814 332.137 307 331.487 307H330.928ZM342.354 306.194H342.809V307H342.25C341.453 307 340.859 306.727 340.469 306.181C340.062 306.727 339.46 307 338.662 307H334.398L334.814 306.194H336.803V300.76L337.661 300.305V306.194H338.571C339.559 306.194 340.053 305.683 340.053 304.66V299.07L340.911 298.615V301.449L340.924 301.436V304.712C340.924 305.7 341.401 306.194 342.354 306.194ZM350.229 306.194H350.671V307H350.112C349.323 307 348.734 306.727 348.344 306.181C347.911 306.9 347.252 307.26 346.368 307.26C345.475 307.26 344.817 306.905 344.392 306.194C343.993 306.731 343.4 307 342.611 307H342.052V306.194H342.507C343.46 306.194 343.937 305.7 343.937 304.712V304.27C343.937 303.273 344.18 302.511 344.665 301.982C345.09 301.514 345.657 301.28 346.368 301.28C347.183 301.28 347.802 301.583 348.227 302.19C348.6 302.71 348.786 303.403 348.786 304.27V304.712C348.786 305.7 349.267 306.194 350.229 306.194ZM346.368 306.454C346.845 306.454 347.222 306.259 347.499 305.869C347.776 305.47 347.915 304.933 347.915 304.257C347.915 302.801 347.399 302.073 346.368 302.073C345.328 302.073 344.808 302.801 344.808 304.257C344.808 305.722 345.328 306.454 346.368 306.454ZM359.188 307H355.977C355.509 307 355.032 306.9 354.547 306.701C354.053 306.9 353.572 307 353.104 307H349.906V306.194H353.052C353.225 306.194 353.403 306.181 353.585 306.155C352.9 305.661 352.155 304.846 351.349 303.711V303.178C352.25 301.913 353.312 301.28 354.534 301.28C355.747 301.28 356.813 301.921 357.732 303.204V303.711C356.926 304.846 356.185 305.661 355.509 306.155C355.682 306.181 355.855 306.194 356.029 306.194H359.175L359.188 307ZM352.103 303.451C353.013 304.664 353.823 305.453 354.534 305.817C355.236 305.453 356.05 304.66 356.978 303.438C356.284 302.528 355.47 302.073 354.534 302.073H354.495C353.611 302.073 352.813 302.532 352.103 303.451ZM358.432 307V306.194H358.796C359.784 306.194 360.278 305.683 360.278 304.66V299.07L361.149 298.615V304.673C361.149 305.41 360.932 305.99 360.499 306.415C360.092 306.805 359.554 307 358.887 307H358.432Z" fill="black"/>
<path d="M229.408 258.943H230.938V261H229.204C228.366 261 227.68 260.779 227.147 260.337C226.603 260.779 225.912 261 225.073 261H219.004C218.041 261 217.287 260.677 216.743 260.031C216.256 259.464 216.012 258.733 216.012 257.838V256.104L218.137 254.982V257.702C218.137 258.155 218.228 258.478 218.409 258.671C218.602 258.852 218.914 258.943 219.344 258.943H224.886C225.317 258.943 225.623 258.847 225.804 258.654C225.986 258.461 226.076 258.144 226.076 257.702V251.157L228.201 250.035V257.719C228.201 258.161 228.292 258.478 228.473 258.671C228.666 258.852 228.978 258.943 229.408 258.943ZM222.557 252.5C223.373 252.636 223.781 253.118 223.781 253.945C223.781 254.874 223.334 255.339 222.438 255.339H219.922L220.449 254.353H222.336C222.642 254.353 222.795 254.2 222.795 253.894C222.795 253.509 222.54 253.316 222.03 253.316C221.69 253.316 221.373 253.407 221.078 253.588V252.738L222.54 251.123H223.781L222.557 252.5ZM237.774 258.943H242.449L242.483 261H237.57C236.992 261 236.448 260.858 235.938 260.575C235.405 260.858 234.861 261 234.306 261H229.427V258.943H234.051C233.541 258.592 233.116 258.257 232.776 257.94C232.583 257.77 232.288 257.453 231.892 256.988C231.767 256.841 231.665 256.722 231.586 256.631V255.662C232.084 254.903 232.725 254.296 233.507 253.843C234.3 253.39 235.11 253.163 235.938 253.163C236.754 253.163 237.558 253.395 238.352 253.86C239.145 254.313 239.802 254.925 240.324 255.696V256.631C239.564 257.549 238.714 258.32 237.774 258.943ZM235.921 258.127C236.771 257.458 237.4 256.784 237.808 256.104C237.128 255.469 236.487 255.152 235.887 255.152C235.309 255.152 234.708 255.469 234.085 256.104C234.527 256.886 235.139 257.56 235.921 258.127ZM245.298 251.956C244.958 251.956 244.686 251.854 244.482 251.65C244.278 251.446 244.176 251.168 244.176 250.817C244.176 250.08 244.55 249.712 245.298 249.712C245.638 249.712 245.904 249.814 246.097 250.018C246.301 250.211 246.403 250.477 246.403 250.817C246.403 251.576 246.034 251.956 245.298 251.956ZM247.916 251.956C247.576 251.956 247.304 251.854 247.1 251.65C246.896 251.446 246.794 251.168 246.794 250.817C246.794 250.08 247.168 249.712 247.916 249.712C248.256 249.712 248.522 249.814 248.715 250.018C248.919 250.211 249.021 250.477 249.021 250.817C249.021 251.576 248.652 251.956 247.916 251.956ZM240.963 261V258.943H243.683C243.343 258.444 243.173 257.821 243.173 257.073C243.173 255.826 243.513 254.84 244.193 254.115C244.805 253.48 245.604 253.163 246.59 253.163C247.598 253.163 248.38 253.486 248.936 254.132C249.434 254.687 249.684 255.413 249.684 256.308V257.838C249.672 258.813 249.383 259.583 248.817 260.15C248.261 260.717 247.508 261 246.556 261H240.963ZM247.542 256.274C247.542 255.526 247.224 255.152 246.59 255.152C245.717 255.152 245.281 255.77 245.281 257.005C245.281 258.297 245.7 258.943 246.539 258.943C247.207 258.943 247.542 258.58 247.542 257.855V256.274ZM260.157 258.943V261H258.066C257.986 262.02 257.533 262.836 256.706 263.448C256.026 263.947 255.232 264.196 254.326 264.196C253.612 264.196 252.915 264.003 252.235 263.618V261.765C252.847 262.116 253.459 262.292 254.071 262.292C254.547 262.292 254.966 262.162 255.329 261.901C255.703 261.64 255.907 261.329 255.941 260.966C255.85 260.955 255.708 260.943 255.516 260.932C255.323 260.909 255.176 260.892 255.074 260.881C253.906 260.756 253.005 260.297 252.371 259.504C251.838 258.835 251.572 258.025 251.572 257.073C251.572 255.826 251.912 254.84 252.592 254.115C253.192 253.48 253.986 253.163 254.972 253.163C255.98 253.163 256.768 253.486 257.335 254.132C257.822 254.687 258.066 255.413 258.066 256.308V258.943H260.157ZM255.941 256.274C255.941 255.526 255.618 255.152 254.972 255.152C254.11 255.152 253.68 255.77 253.68 257.005C253.68 258.104 254.178 258.716 255.176 258.841C255.334 258.875 255.589 258.903 255.941 258.926V256.274ZM261.359 256.308C261.359 255.288 261.677 254.489 262.311 253.911C262.867 253.412 263.581 253.163 264.453 253.163C265.575 253.163 266.448 253.577 267.071 254.404C267.604 255.095 267.87 255.985 267.87 257.073C267.87 258.331 267.536 259.323 266.867 260.048C266.267 260.683 265.502 261 264.572 261C263.666 261 262.923 260.802 262.345 260.405C261.801 260.802 261.144 261 260.373 261H258.639V258.943H260.169C260.6 258.943 260.906 258.852 261.087 258.671C261.269 258.478 261.359 258.161 261.359 257.719V256.308ZM263.501 257.991C263.501 258.626 263.836 258.943 264.504 258.943C265.343 258.943 265.762 258.297 265.762 257.005C265.762 255.77 265.326 255.152 264.453 255.152C263.819 255.152 263.501 255.526 263.501 256.274V257.991ZM272.823 262.105V260.048C273.276 259.765 273.769 259.561 274.302 259.436C273.939 258.745 273.758 258.031 273.758 257.294C273.758 256.138 274.092 255.22 274.761 254.54C275.373 253.917 276.166 253.605 277.141 253.605C278.138 253.605 278.977 253.996 279.657 254.778V256.767C278.829 255.951 278.042 255.543 277.294 255.543C276.874 255.543 276.534 255.702 276.274 256.019C276.013 256.325 275.883 256.727 275.883 257.226C275.883 257.985 276.126 258.609 276.614 259.096C276.693 259.096 276.818 259.09 276.988 259.079C277.112 259.079 277.214 259.073 277.294 259.062C278.574 258.983 279.674 258.637 280.592 258.025L280.575 259.963C279.623 260.654 278.331 261 276.699 261C275.146 261 273.854 261.368 272.823 262.105ZM282.471 261V251.174L284.613 250.035V261H282.471ZM285.808 261L286.879 258.943H289.565C290.143 258.943 290.432 258.609 290.432 257.94C290.432 256.682 289.831 255.719 288.63 255.05L289.684 253.248C291.61 254.381 292.574 255.957 292.574 257.974C292.574 259.991 291.701 261 289.956 261H285.808ZM294.123 249.083L294.667 248.097H295.177C295.053 247.87 294.99 247.638 294.99 247.4C294.99 247.037 295.121 246.726 295.381 246.465C295.653 246.204 295.976 246.074 296.35 246.074C296.69 246.074 297.008 246.193 297.302 246.431V247.417C297.03 247.179 296.758 247.06 296.486 247.06C296.112 247.06 295.925 247.23 295.925 247.57C295.925 247.74 295.999 247.916 296.146 248.097H297.829L297.285 249.083H294.123ZM294.769 261V251.174L296.911 250.035V261H294.769ZM307.317 258.943H308.847V261H307.113C306.727 261 306.37 260.949 306.042 260.847C305.894 261.935 305.458 262.796 304.733 263.431C304.075 263.998 303.288 264.281 302.37 264.281C301.656 264.281 300.959 264.1 300.279 263.737V261.867C300.868 262.196 301.446 262.36 302.013 262.36C302.636 262.36 303.118 262.156 303.458 261.748C303.809 261.351 303.985 260.796 303.985 260.082V254.574L305.379 253.843L306.11 253.452V253.469L306.127 253.452V257.719C306.127 258.161 306.217 258.478 306.399 258.671C306.58 258.852 306.886 258.943 307.317 258.943ZM307.333 261V258.943H308.863C309.293 258.943 309.599 258.852 309.781 258.671C309.962 258.478 310.053 258.161 310.053 257.719V254.574L312.195 253.452V257.821C312.195 258.852 311.877 259.657 311.243 260.235C310.687 260.745 309.962 261 309.067 261H307.333ZM308.251 264.791C307.911 264.791 307.639 264.689 307.435 264.485C307.231 264.281 307.129 264.003 307.129 263.652C307.129 262.915 307.503 262.547 308.251 262.547C308.591 262.547 308.857 262.643 309.05 262.836C309.254 263.04 309.356 263.312 309.356 263.652C309.356 264.411 308.987 264.791 308.251 264.791ZM310.869 264.791C310.529 264.791 310.257 264.689 310.053 264.485C309.849 264.281 309.747 264.003 309.747 263.652C309.747 262.915 310.121 262.547 310.869 262.547C311.209 262.547 311.475 262.643 311.668 262.836C311.872 263.04 311.974 263.312 311.974 263.652C311.974 264.411 311.605 264.791 310.869 264.791ZM322.825 258.943V261H320.734C320.654 262.02 320.201 262.836 319.374 263.448C318.694 263.947 317.9 264.196 316.994 264.196C316.28 264.196 315.583 264.003 314.903 263.618V261.765C315.515 262.116 316.127 262.292 316.739 262.292C317.215 262.292 317.634 262.162 317.997 261.901C318.371 261.64 318.575 261.329 318.609 260.966C318.518 260.955 318.376 260.943 318.184 260.932C317.991 260.909 317.844 260.892 317.742 260.881C316.574 260.756 315.673 260.297 315.039 259.504C314.506 258.835 314.24 258.025 314.24 257.073C314.24 255.826 314.58 254.84 315.26 254.115C315.86 253.48 316.654 253.163 317.64 253.163C318.648 253.163 319.436 253.486 320.003 254.132C320.49 254.687 320.734 255.413 320.734 256.308V258.943H322.825ZM318.609 256.274C318.609 255.526 318.286 255.152 317.64 255.152C316.778 255.152 316.348 255.77 316.348 257.005C316.348 258.104 316.846 258.716 317.844 258.841C318.002 258.875 318.257 258.903 318.609 258.926V256.274ZM336.114 258.943H337.644V261H335.91C335.094 261 334.426 260.79 333.904 260.371C333.383 260.79 332.731 261 331.949 261H321.307V258.943H324.35L324.554 258.365V251.174L326.696 250.035V254.931C327.852 253.752 329.178 253.163 330.674 253.163C332.023 253.163 333.094 253.628 333.887 254.557C334.567 255.339 334.907 256.308 334.907 257.464V257.821C334.907 258.569 335.31 258.943 336.114 258.943ZM331.864 258.943C332.238 258.943 332.482 258.869 332.595 258.722C332.72 258.575 332.782 258.263 332.782 257.787V257.464C332.782 256.784 332.584 256.229 332.187 255.798C331.802 255.367 331.303 255.152 330.691 255.152C329.909 255.152 329.161 255.441 328.447 256.019C327.745 256.597 327.161 257.396 326.696 258.416V258.943H331.864ZM337.355 251.735C337.015 251.735 336.743 251.633 336.539 251.429C336.335 251.225 336.233 250.947 336.233 250.596C336.233 249.859 336.607 249.491 337.355 249.491C337.695 249.491 337.961 249.593 338.154 249.797C338.358 249.99 338.46 250.256 338.46 250.596C338.46 251.355 338.091 251.735 337.355 251.735ZM339.973 251.735C339.633 251.735 339.361 251.633 339.157 251.429C338.953 251.225 338.851 250.947 338.851 250.596C338.851 249.859 339.225 249.491 339.973 249.491C340.313 249.491 340.579 249.593 340.772 249.797C340.976 249.99 341.078 250.256 341.078 250.596C341.078 251.355 340.709 251.735 339.973 251.735ZM336.131 261V258.943H337.661C338.091 258.943 338.397 258.852 338.579 258.671C338.76 258.478 338.851 258.161 338.851 257.719V254.574L340.993 253.452V257.821C340.993 258.852 340.675 259.657 340.041 260.235C339.485 260.745 338.76 261 337.865 261H336.131Z" fill="black"/>
<g filter="url(#filter0_d_0_1178)">
<circle cx="419.5" cy="49.5" r="43.5" fill="url(#paint0_linear_0_1178)"/>
<circle cx="419.5" cy="49.5" r="43" stroke="white" stroke-opacity="0.15"/>
</g>
<path fill-rule="evenodd" clip-rule="evenodd" d="M425.23 50.7426L426.819 53.869C426.881 53.9913 427.067 53.9991 427.141 53.8825L428.548 51.6637L431.307 52.1054C431.452 52.1286 431.565 51.9932 431.503 51.8707L429.525 47.9775C429.426 48.0276 429.357 48.0893 429.288 48.1866L428.446 49.3662C427.731 50.3668 426.487 50.883 425.23 50.7426ZM411.258 55.3189C412.56 54.6275 413.884 54.1372 415.316 54.5627C416.912 55.037 419.518 56.0555 422.176 56.4947C423.163 56.7878 423.778 57.6931 423.509 58.6109C423.297 59.3367 422.555 59.9861 421.696 59.7775L417.282 58.7057C417.113 58.6663 416.934 58.6897 416.784 58.7708C416.634 58.8518 416.525 58.9839 416.48 59.1382C416.436 59.2926 416.46 59.4568 416.547 59.595C416.634 59.7333 416.778 59.8343 416.946 59.8762L421.36 60.948C422.486 61.2216 423.55 60.8135 424.112 59.8846C424.449 59.7965 424.779 59.6676 425.103 59.4945L431.775 55.9334C436.962 53.1655 437.723 57.4237 435.999 58.3966L423.891 65.2286C422.777 65.8568 421.559 66.0035 420.296 65.6932L411.513 63.5368L410.808 63.9101L406.923 57.6203L411.258 55.3189ZM405.124 57.1706C404.858 56.7397 404.255 56.5866 403.785 56.8306L401.913 57.8014C401.443 58.0453 401.276 58.5973 401.542 59.0282L407.046 67.9393C407.312 68.3702 407.914 68.5232 408.384 68.2793L410.256 67.3084C410.727 67.0646 410.894 66.5125 410.628 66.0817L405.124 57.1706ZM403.752 58.3282C403.839 58.3155 403.929 58.3188 404.015 58.3379C404.101 58.3571 404.181 58.3916 404.253 58.4397C404.324 58.4877 404.384 58.5482 404.43 58.6177C404.475 58.6872 404.505 58.7643 404.518 58.8445C404.531 58.9247 404.526 59.0065 404.504 59.085C404.482 59.1635 404.444 59.2373 404.39 59.302C404.337 59.3667 404.27 59.4211 404.194 59.462C404.117 59.5029 404.033 59.5295 403.945 59.5402C403.771 59.5615 403.594 59.5191 403.454 59.422C403.314 59.325 403.221 59.1811 403.195 59.0217C403.17 58.8622 403.214 58.7 403.318 58.5702C403.422 58.4404 403.578 58.3534 403.752 58.3282ZM422.972 35.985C420.084 35.985 417.743 38.1301 417.743 40.7765C417.743 43.4229 420.084 45.568 422.972 45.568C425.86 45.568 428.201 43.4229 428.201 40.7765C428.201 38.1301 425.86 35.985 422.972 35.985ZM422.198 41.2526L425.063 38.6016C425.402 38.2878 425.955 38.2869 426.296 38.5981C426.638 38.9092 426.639 39.4146 426.3 39.7278C425.139 40.8021 423.985 41.8834 422.818 42.9528C422.477 43.2654 421.923 43.2654 421.582 42.9528L419.646 41.1787C419.305 40.8661 419.305 40.3591 419.646 40.0465C419.988 39.7338 420.541 39.7338 420.882 40.0465L422.198 41.2526ZM424.197 32.3793L425.428 33.224C425.765 33.455 426.119 33.5732 426.539 33.5946L428.075 33.6729C428.995 33.7197 429.742 34.294 429.952 35.1158L430.303 36.4882C430.399 36.8635 430.587 37.163 430.894 37.4267L432.016 38.3914C432.687 38.9689 432.856 39.8489 432.441 40.6021L431.747 41.8601C431.557 42.2041 431.492 42.5445 431.542 42.9273L431.724 44.3269C431.834 45.1649 431.346 45.9387 430.499 46.271L429.085 46.8258C428.699 46.9776 428.41 47.1998 428.179 47.5224L427.337 48.7021C426.833 49.4085 425.917 49.7141 425.036 49.4699L423.563 49.0621C423.16 48.9506 422.783 48.9506 422.38 49.0621L420.908 49.4699C420.026 49.7141 419.11 49.4085 418.606 48.7021L417.764 47.5224C417.534 47.1998 417.245 46.9776 416.858 46.8258L415.444 46.271C414.597 45.9387 414.11 45.1649 414.219 44.3269L414.402 42.9273C414.452 42.5445 414.386 42.2041 414.196 41.8601L413.502 40.6021C413.087 39.8489 413.256 38.969 413.928 38.3914L415.049 37.4267C415.356 37.163 415.545 36.8635 415.641 36.4882L415.992 35.1158C416.202 34.294 416.948 33.7197 417.868 33.6729L419.404 33.5946C419.824 33.5732 420.178 33.4549 420.515 33.224L421.747 32.3793C422.484 31.8736 423.459 31.8736 424.197 32.3793ZM422.972 34.7718C426.591 34.7718 429.525 37.4603 429.525 40.7765C429.525 44.0927 426.591 46.7812 422.972 46.7812C419.353 46.7812 416.419 44.0927 416.419 40.7765C416.419 37.4603 419.353 34.7718 422.972 34.7718ZM420.714 50.7425C419.456 50.8829 418.212 50.3667 417.498 49.3661L416.656 48.1864C416.587 48.0891 416.518 48.0274 416.419 47.9773L414.441 51.8706C414.379 51.993 414.492 52.1284 414.637 52.1052L417.396 51.6636L418.803 53.8823C418.877 53.9989 419.063 53.9912 419.125 53.8689L420.714 50.7425Z" fill="white"/>
<g filter="url(#filter1_d_0_1178)">
<g filter="url(#filter2_d_0_1178)">
<circle cx="520.5" cy="216.5" r="42.5" fill="white"/>
</g>
</g>
<g filter="url(#filter3_d_0_1178)">
<g filter="url(#filter4_d_0_1178)">
<circle cx="460.5" cy="423.5" r="42.5" fill="white"/>
</g>
</g>
<g filter="url(#filter5_d_0_1178)">
<g filter="url(#filter6_d_0_1178)">
<circle cx="224.5" cy="483.5" r="42.5" fill="white"/>
</g>
</g>
<g filter="url(#filter7_d_0_1178)">
<g filter="url(#filter8_d_0_1178)">
<circle cx="60.5" cy="317.5" r="42.5" fill="white"/>
</g>
</g>
<g filter="url(#filter9_d_0_1178)">
<g filter="url(#filter10_d_0_1178)">
<circle cx="124.5" cy="79.5" r="42.5" fill="white"/>
</g>
</g>
<g clip-path="url(#clip0_0_1178)">
<path d="M115.796 69.3049L112.813 66.3221C112.402 65.9101 111.734 65.9101 111.322 66.3221C110.91 66.7341 110.91 67.4015 111.322 67.8135L114.305 70.7963C114.717 71.2083 115.384 71.2083 115.796 70.7963C116.208 70.3843 116.208 69.7169 115.796 69.3049ZM111.344 77.9453H107.055C106.472 77.9453 106 78.417 106 79C106 79.583 106.472 80.0547 107.055 80.0547H111.344C111.927 80.0547 112.398 79.583 112.398 79C112.398 78.417 111.927 77.9453 111.344 77.9453ZM140.945 77.9453H136.656C136.073 77.9453 135.602 78.417 135.602 79C135.602 79.583 136.073 80.0547 136.656 80.0547H140.945C141.528 80.0547 142 79.583 142 79C142 78.417 141.528 77.9453 140.945 77.9453ZM136.678 66.3221C136.266 65.9101 135.598 65.9101 135.187 66.3221L132.204 69.3049C131.792 69.7169 131.792 70.3843 132.204 70.7963C132.616 71.2083 133.283 71.2083 133.695 70.7963L136.678 67.8135C137.09 67.4015 137.09 66.7341 136.678 66.3221ZM124 61C123.417 61 122.945 61.4717 122.945 62.0547V66.3438C122.945 66.9267 123.417 67.3984 124 67.3984C124.583 67.3984 125.055 66.9267 125.055 66.3438V62.0547C125.055 61.4717 124.583 61 124 61ZM129.906 71.5538C127.607 69.7398 124.633 69.0859 121.722 69.782C118.347 70.5625 115.626 73.2413 114.803 76.5953C113.98 79.9702 114.93 83.3874 117.355 85.771C118.22 86.6359 118.727 87.9929 118.727 89.3852V89.6172C118.727 90.2077 119.191 90.6719 119.781 90.6719H128.219C128.809 90.6719 129.273 90.2077 129.273 89.6172V89.3852C129.273 88.014 129.801 86.6148 130.729 85.7077C132.501 83.9148 133.492 81.5312 133.492 79C133.492 76.0891 132.184 73.3679 129.906 71.5538ZM124 75.8359C122.409 75.8359 121.25 76.8914 120.947 78.1132C120.809 78.6689 120.25 79.0236 119.669 78.8836C119.105 78.7436 118.759 78.1709 118.9 77.6065C119.422 75.4971 121.403 73.7266 124 73.7266C124.583 73.7266 125.055 74.1983 125.055 74.7812C125.055 75.3642 124.583 75.8359 124 75.8359ZM119.781 92.7812V93.8359C119.781 95.5807 121.201 97 122.945 97H125.055C126.799 97 128.219 95.5807 128.219 93.8359V92.7812H119.781Z" fill="#0B6AF0"/>
</g>
<path d="M60.089 329.115C60.0007 329.159 59.9059 329.19 59.8081 329.204L58.7406 329.368C58.6985 331.347 59.4533 333.241 60.8736 334.661C60.951 334.739 61.0431 334.801 61.1445 334.843C61.246 334.885 61.3547 334.907 61.4645 334.906C61.6877 334.906 61.8976 334.819 62.0554 334.662L66.069 330.648C67.582 329.135 67.7823 326.773 66.5453 325.033C66.5357 325.019 66.5275 325.005 66.5187 324.991C64.8652 326.407 63.0461 327.62 61.079 328.614L60.089 329.115ZM48.2965 317.693C48.3115 317.595 48.3419 317.5 48.3865 317.412L48.5513 317.086C49.6593 314.893 51.0367 312.887 52.6643 311.089C52.6277 311.069 52.5924 311.047 52.5588 311.022C50.8337 309.728 48.3808 309.904 46.853 311.432L42.8394 315.446C42.5136 315.771 42.5136 316.302 42.8394 316.627C44.26 318.048 46.1542 318.803 48.1331 318.761L48.2965 317.693ZM59.9023 327.108L60.2335 326.941C65.9647 324.045 70.326 319.169 72.5684 313.17L64.7325 305.334C58.5922 307.423 53.4062 311.857 50.3952 317.601L59.9023 327.108ZM59.1182 313.062C59.8843 312.296 60.9029 311.874 61.9864 311.874C63.0699 311.874 64.0885 312.296 64.8546 313.062C65.6207 313.828 66.0427 314.847 66.0427 315.93C66.0427 317.014 65.6207 318.032 64.8546 318.798C64.0885 319.565 63.0699 319.986 61.9864 319.986C60.9029 319.986 59.8843 319.565 59.1182 318.798C58.3521 318.032 57.9302 317.014 57.9302 315.93C57.9302 314.847 58.3521 313.828 59.1182 313.062ZM66.8362 304.786L73.1743 311.125C73.5004 309.645 73.7842 307.621 73.996 305.231C74.0216 304.942 73.9248 304.667 73.7234 304.458C73.5226 304.25 73.2523 304.142 72.9638 304.158C70.4796 304.285 68.3762 304.502 66.8362 304.786ZM57.7633 327.621L49.8803 319.738L49.4326 322.663C49.4099 322.813 49.4227 322.966 49.47 323.11C49.5172 323.254 49.5975 323.385 49.7045 323.492L54.0086 327.797C54.116 327.904 54.2469 327.984 54.391 328.031C54.5351 328.078 54.6882 328.091 54.8381 328.068L57.7633 327.621Z" fill="#0B6AF0"/>
<path d="M60.444 314.388C60.032 314.8 59.8051 315.348 59.8051 315.93C59.8051 316.513 60.032 317.061 60.444 317.473C60.856 317.885 61.4037 318.111 61.9863 318.111C62.569 318.111 63.1167 317.885 63.5287 317.473C63.9407 317.061 64.1676 316.513 64.1676 315.93C64.1676 315.348 63.9407 314.8 63.5287 314.388C63.1167 313.976 62.569 313.749 61.9863 313.749C61.4037 313.749 60.856 313.976 60.444 314.388ZM49.39 328.454C49.0239 328.088 48.4303 328.088 48.0642 328.454L45.0012 331.517C44.6351 331.883 44.6351 332.477 45.0012 332.843C45.1843 333.026 45.4242 333.117 45.6641 333.117C45.904 333.117 46.144 333.026 46.327 332.843L49.39 329.78C49.7562 329.414 49.7562 328.82 49.39 328.454ZM46.6633 325.727C46.2973 325.361 45.7037 325.361 45.3375 325.727L42.2746 328.79C41.9085 329.156 41.9085 329.75 42.2746 330.116C42.4577 330.299 42.6976 330.391 42.9375 330.391C43.1773 330.391 43.4173 330.299 43.6003 330.116L46.6633 327.053C47.0295 326.687 47.0295 326.093 46.6633 325.727ZM50.7907 331.18L47.7277 334.243C47.3616 334.61 47.3616 335.203 47.7277 335.569C47.8147 335.656 47.918 335.726 48.0318 335.773C48.1455 335.82 48.2675 335.844 48.3906 335.844C48.6305 335.844 48.8705 335.752 49.0535 335.569L52.1165 332.506C52.4826 332.14 52.4826 331.547 52.1165 331.18C51.7505 330.814 51.1568 330.814 50.7907 331.18Z" fill="#0B6AF0"/>
<g clip-path="url(#clip1_0_1178)">
<path d="M472.5 412.25H447.5C446.122 412.25 445 413.371 445 414.75V432.25C445 433.629 446.122 434.75 447.5 434.75H456.253C456.227 435.747 456.036 437.342 455.321 438.095C455.059 438.371 454.758 438.5 454.375 438.5C454.293 438.5 454.212 438.516 454.136 438.548C454.06 438.579 453.991 438.625 453.933 438.683C453.875 438.741 453.829 438.81 453.797 438.886C453.766 438.962 453.75 439.043 453.75 439.125C453.75 439.207 453.766 439.288 453.797 439.364C453.829 439.44 453.875 439.509 453.933 439.567C453.991 439.625 454.06 439.671 454.136 439.703C454.212 439.734 454.293 439.75 454.375 439.75H465.625C465.707 439.75 465.788 439.734 465.864 439.703C465.94 439.671 466.009 439.625 466.067 439.567C466.125 439.509 466.171 439.44 466.203 439.364C466.234 439.288 466.25 439.207 466.25 439.125C466.25 439.043 466.234 438.962 466.203 438.886C466.171 438.81 466.125 438.741 466.067 438.683C466.009 438.625 465.94 438.579 465.864 438.548C465.788 438.516 465.707 438.5 465.625 438.5C465.242 438.5 464.941 438.372 464.68 438.096C463.967 437.347 463.775 435.749 463.748 434.75H472.5C473.878 434.75 475 433.629 475 432.25V414.75C475 413.371 473.878 412.25 472.5 412.25ZM460 433.504C459.309 433.504 458.746 432.941 458.746 432.25C458.746 431.559 459.309 430.996 460 430.996C460.691 430.996 461.254 431.559 461.254 432.25C461.254 432.941 460.691 433.504 460 433.504ZM447.5 429.75V414.75H472.5L472.501 429.75H447.5Z" fill="#0B6AF0"/>
</g>
<g clip-path="url(#clip2_0_1178)">
<path d="M234.918 485.963L233.55 485.173C233.671 484.583 233.729 484.039 233.729 483.5C233.729 482.961 233.671 482.417 233.55 481.827L234.918 481.037C235.154 480.901 235.326 480.677 235.396 480.414C235.466 480.152 235.43 479.872 235.294 479.636L233.243 476.084C232.96 475.594 232.333 475.426 231.842 475.709L230.486 476.492C229.636 475.771 228.65 475.207 227.576 474.83V473.246C227.576 472.68 227.117 472.221 226.551 472.221H222.449C221.883 472.221 221.424 472.68 221.424 473.246V474.83C220.351 475.207 219.364 475.771 218.514 476.492L217.158 475.709C216.668 475.426 216.04 475.594 215.757 476.084L213.707 479.636C213.571 479.872 213.534 480.152 213.604 480.414C213.675 480.677 213.846 480.901 214.082 481.037L215.45 481.827C215.329 482.417 215.271 482.961 215.271 483.5C215.271 484.039 215.329 484.583 215.45 485.173L214.082 485.963C213.846 486.099 213.674 486.323 213.604 486.586C213.534 486.848 213.57 487.128 213.706 487.364L215.757 490.916C216.04 491.406 216.668 491.574 217.158 491.291L218.514 490.508C219.364 491.229 220.35 491.793 221.424 492.17V493.754C221.424 494.32 221.883 494.779 222.449 494.779H226.551C227.117 494.779 227.576 494.32 227.576 493.754V492.17C228.649 491.793 229.636 491.229 230.486 490.508L231.842 491.291C232.332 491.574 232.959 491.406 233.243 490.916L235.293 487.364C235.361 487.247 235.405 487.118 235.422 486.985C235.44 486.851 235.431 486.716 235.396 486.586C235.361 486.455 235.301 486.334 235.219 486.227C235.137 486.12 235.035 486.03 234.918 485.963ZM224.5 486.576C222.804 486.576 221.424 485.196 221.424 483.5C221.424 481.804 222.804 480.424 224.5 480.424C226.196 480.424 227.576 481.804 227.576 483.5C227.576 485.196 226.196 486.576 224.5 486.576Z" fill="#0B6AF0"/>
<path d="M238.524 473.025L237.074 468.675C236.895 468.137 236.314 467.847 235.777 468.026C235.239 468.205 234.949 468.786 235.128 469.323L235.251 469.693C234.327 468.989 233.337 468.374 232.296 467.857C229.846 466.642 227.15 466 224.5 466C219.851 466 215.463 467.827 212.145 471.145C208.827 474.463 207 478.851 207 483.5C207 485.647 207.451 487.847 208.341 490.038C208.502 490.436 208.886 490.678 209.291 490.678C209.419 490.678 209.55 490.654 209.676 490.602C210.201 490.389 210.454 489.791 210.241 489.267C209.451 487.322 209.051 485.381 209.051 483.5C209.051 474.981 215.981 468.051 224.5 468.051C227.627 468.051 230.783 469.091 233.406 470.895C232.904 470.792 232.394 471.077 232.228 471.575C232.049 472.112 232.339 472.693 232.876 472.872L237.227 474.322C237.408 474.382 237.601 474.391 237.787 474.347C237.972 474.303 238.141 474.209 238.276 474.074C238.411 473.94 238.505 473.77 238.549 473.585C238.593 473.399 238.584 473.206 238.524 473.025ZM240.659 476.962C240.446 476.437 239.848 476.185 239.324 476.398C238.799 476.611 238.546 477.209 238.759 477.733C239.549 479.678 239.949 481.619 239.949 483.5C239.949 492.019 233.019 498.949 224.5 498.949C221.373 498.949 218.217 497.909 215.594 496.105C216.096 496.208 216.606 495.923 216.772 495.425C216.951 494.888 216.661 494.307 216.124 494.128L211.773 492.678C211.592 492.618 211.399 492.609 211.213 492.653C211.028 492.697 210.858 492.791 210.724 492.926C210.589 493.06 210.495 493.23 210.451 493.415C210.407 493.601 210.416 493.794 210.476 493.975L211.926 498.326C212.069 498.755 212.469 499.027 212.899 499.027C213.006 499.027 213.116 499.01 213.223 498.974C213.76 498.795 214.051 498.214 213.872 497.677L213.749 497.307C214.673 498.011 215.663 498.626 216.704 499.143C219.154 500.358 221.85 501 224.5 501C229.149 501 233.537 499.173 236.855 495.855C240.173 492.537 242 488.149 242 483.5C242 481.353 241.549 479.153 240.659 476.962Z" fill="#0B6AF0"/>
</g>
<path d="M530.2 216.431C528.828 218.341 527.617 220.36 526.577 222.469H515.422C514.383 220.36 513.172 218.341 511.8 216.431C511.711 216.313 511.661 216.171 511.656 216.024C511.651 215.876 511.691 215.731 511.771 215.607L520.281 202.373V213.48C519.669 213.653 519.141 214.042 518.793 214.575C518.445 215.107 518.302 215.748 518.39 216.378C518.477 217.008 518.79 217.585 519.269 218.003C519.749 218.421 520.364 218.651 521 218.651C521.636 218.651 522.251 218.421 522.73 218.003C523.21 217.585 523.523 217.008 523.61 216.378C523.698 215.748 523.555 215.107 523.207 214.575C522.859 214.042 522.331 213.653 521.719 213.48V202.373L530.229 215.607C530.309 215.731 530.349 215.876 530.344 216.024C530.339 216.171 530.289 216.313 530.2 216.431Z" fill="#0B6AF0"/>
<path d="M525.792 223.906H516.208C515.282 223.906 514.531 224.657 514.531 225.583V228.458C514.531 229.385 515.282 230.135 516.208 230.135H525.792C526.718 230.135 527.469 229.385 527.469 228.458V225.583C527.469 224.657 526.718 223.906 525.792 223.906Z" fill="#0B6AF0"/>
<defs>
<filter id="filter0_d_0_1178" x="366" y="0" width="107" height="107" filterUnits="userSpaceOnUse" color-interpolation-filters="sRGB">
<feFlood flood-opacity="0" result="BackgroundImageFix"/>
<feColorMatrix in="SourceAlpha" type="matrix" values="0 0 0 0 0 0 0 0 0 0 0 0 0 0 0 0 0 0 127 0" result="hardAlpha"/>
<feMorphology radius="3" operator="erode" in="SourceAlpha" result="effect1_dropShadow_0_1178"/>
<feOffset dy="4"/>
<feGaussianBlur stdDeviation="6.5"/>
<feComposite in2="hardAlpha" operator="out"/>
<feColorMatrix type="matrix" values="0 0 0 0 0 0 0 0 0 0 0 0 0 0 0 0 0 0 0.25 0"/>
<feBlend mode="normal" in2="BackgroundImageFix" result="effect1_dropShadow_0_1178"/>
<feBlend mode="normal" in="SourceGraphic" in2="effect1_dropShadow_0_1178" result="shape"/>
</filter>
<filter id="filter1_d_0_1178" x="460" y="160" width="121" height="121" filterUnits="userSpaceOnUse" color-interpolation-filters="sRGB">
<feFlood flood-opacity="0" result="BackgroundImageFix"/>
<feColorMatrix in="SourceAlpha" type="matrix" values="0 0 0 0 0 0 0 0 0 0 0 0 0 0 0 0 0 0 127 0" result="hardAlpha"/>
<feOffset dy="4"/>
<feGaussianBlur stdDeviation="9"/>
<feComposite in2="hardAlpha" operator="out"/>
<feColorMatrix type="matrix" values="0 0 0 0 0 0 0 0 0 0 0 0 0 0 0 0 0 0 0.03 0"/>
<feBlend mode="normal" in2="BackgroundImageFix" result="effect1_dropShadow_0_1178"/>
<feBlend mode="normal" in="SourceGraphic" in2="effect1_dropShadow_0_1178" result="shape"/>
</filter>
<filter id="filter2_d_0_1178" x="466" y="163" width="109" height="109" filterUnits="userSpaceOnUse" color-interpolation-filters="sRGB">
<feFlood flood-opacity="0" result="BackgroundImageFix"/>
<feColorMatrix in="SourceAlpha" type="matrix" values="0 0 0 0 0 0 0 0 0 0 0 0 0 0 0 0 0 0 127 0" result="hardAlpha"/>
<feOffset dy="1"/>
<feGaussianBlur stdDeviation="6"/>
<feComposite in2="hardAlpha" operator="out"/>
<feColorMatrix type="matrix" values="0 0 0 0 0 0 0 0 0 0 0 0 0 0 0 0 0 0 0.09 0"/>
<feBlend mode="normal" in2="BackgroundImageFix" result="effect1_dropShadow_0_1178"/>
<feBlend mode="normal" in="SourceGraphic" in2="effect1_dropShadow_0_1178" result="shape"/>
</filter>
<filter id="filter3_d_0_1178" x="400" y="367" width="121" height="121" filterUnits="userSpaceOnUse" color-interpolation-filters="sRGB">
<feFlood flood-opacity="0" result="BackgroundImageFix"/>
<feColorMatrix in="SourceAlpha" type="matrix" values="0 0 0 0 0 0 0 0 0 0 0 0 0 0 0 0 0 0 127 0" result="hardAlpha"/>
<feOffset dy="4"/>
<feGaussianBlur stdDeviation="9"/>
<feComposite in2="hardAlpha" operator="out"/>
<feColorMatrix type="matrix" values="0 0 0 0 0 0 0 0 0 0 0 0 0 0 0 0 0 0 0.03 0"/>
<feBlend mode="normal" in2="BackgroundImageFix" result="effect1_dropShadow_0_1178"/>
<feBlend mode="normal" in="SourceGraphic" in2="effect1_dropShadow_0_1178" result="shape"/>
</filter>
<filter id="filter4_d_0_1178" x="406" y="370" width="109" height="109" filterUnits="userSpaceOnUse" color-interpolation-filters="sRGB">
<feFlood flood-opacity="0" result="BackgroundImageFix"/>
<feColorMatrix in="SourceAlpha" type="matrix" values="0 0 0 0 0 0 0 0 0 0 0 0 0 0 0 0 0 0 127 0" result="hardAlpha"/>
<feOffset dy="1"/>
<feGaussianBlur stdDeviation="6"/>
<feComposite in2="hardAlpha" operator="out"/>
<feColorMatrix type="matrix" values="0 0 0 0 0 0 0 0 0 0 0 0 0 0 0 0 0 0 0.09 0"/>
<feBlend mode="normal" in2="BackgroundImageFix" result="effect1_dropShadow_0_1178"/>
<feBlend mode="normal" in="SourceGraphic" in2="effect1_dropShadow_0_1178" result="shape"/>
</filter>
<filter id="filter5_d_0_1178" x="164" y="427" width="121" height="121" filterUnits="userSpaceOnUse" color-interpolation-filters="sRGB">
<feFlood flood-opacity="0" result="BackgroundImageFix"/>
<feColorMatrix in="SourceAlpha" type="matrix" values="0 0 0 0 0 0 0 0 0 0 0 0 0 0 0 0 0 0 127 0" result="hardAlpha"/>
<feOffset dy="4"/>
<feGaussianBlur stdDeviation="9"/>
<feComposite in2="hardAlpha" operator="out"/>
<feColorMatrix type="matrix" values="0 0 0 0 0 0 0 0 0 0 0 0 0 0 0 0 0 0 0.03 0"/>
<feBlend mode="normal" in2="BackgroundImageFix" result="effect1_dropShadow_0_1178"/>
<feBlend mode="normal" in="SourceGraphic" in2="effect1_dropShadow_0_1178" result="shape"/>
</filter>
<filter id="filter6_d_0_1178" x="170" y="430" width="109" height="109" filterUnits="userSpaceOnUse" color-interpolation-filters="sRGB">
<feFlood flood-opacity="0" result="BackgroundImageFix"/>
<feColorMatrix in="SourceAlpha" type="matrix" values="0 0 0 0 0 0 0 0 0 0 0 0 0 0 0 0 0 0 127 0" result="hardAlpha"/>
<feOffset dy="1"/>
<feGaussianBlur stdDeviation="6"/>
<feComposite in2="hardAlpha" operator="out"/>
<feColorMatrix type="matrix" values="0 0 0 0 0 0 0 0 0 0 0 0 0 0 0 0 0 0 0.09 0"/>
<feBlend mode="normal" in2="BackgroundImageFix" result="effect1_dropShadow_0_1178"/>
<feBlend mode="normal" in="SourceGraphic" in2="effect1_dropShadow_0_1178" result="shape"/>
</filter>
<filter id="filter7_d_0_1178" x="0" y="261" width="121" height="121" filterUnits="userSpaceOnUse" color-interpolation-filters="sRGB">
<feFlood flood-opacity="0" result="BackgroundImageFix"/>
<feColorMatrix in="SourceAlpha" type="matrix" values="0 0 0 0 0 0 0 0 0 0 0 0 0 0 0 0 0 0 127 0" result="hardAlpha"/>
<feOffset dy="4"/>
<feGaussianBlur stdDeviation="9"/>
<feComposite in2="hardAlpha" operator="out"/>
<feColorMatrix type="matrix" values="0 0 0 0 0 0 0 0 0 0 0 0 0 0 0 0 0 0 0.03 0"/>
<feBlend mode="normal" in2="BackgroundImageFix" result="effect1_dropShadow_0_1178"/>
<feBlend mode="normal" in="SourceGraphic" in2="effect1_dropShadow_0_1178" result="shape"/>
</filter>
<filter id="filter8_d_0_1178" x="6" y="264" width="109" height="109" filterUnits="userSpaceOnUse" color-interpolation-filters="sRGB">
<feFlood flood-opacity="0" result="BackgroundImageFix"/>
<feColorMatrix in="SourceAlpha" type="matrix" values="0 0 0 0 0 0 0 0 0 0 0 0 0 0 0 0 0 0 127 0" result="hardAlpha"/>
<feOffset dy="1"/>
<feGaussianBlur stdDeviation="6"/>
<feComposite in2="hardAlpha" operator="out"/>
<feColorMatrix type="matrix" values="0 0 0 0 0 0 0 0 0 0 0 0 0 0 0 0 0 0 0.09 0"/>
<feBlend mode="normal" in2="BackgroundImageFix" result="effect1_dropShadow_0_1178"/>
<feBlend mode="normal" in="SourceGraphic" in2="effect1_dropShadow_0_1178" result="shape"/>
</filter>
<filter id="filter9_d_0_1178" x="64" y="23" width="121" height="121" filterUnits="userSpaceOnUse" color-interpolation-filters="sRGB">
<feFlood flood-opacity="0" result="BackgroundImageFix"/>
<feColorMatrix in="SourceAlpha" type="matrix" values="0 0 0 0 0 0 0 0 0 0 0 0 0 0 0 0 0 0 127 0" result="hardAlpha"/>
<feOffset dy="4"/>
<feGaussianBlur stdDeviation="9"/>
<feComposite in2="hardAlpha" operator="out"/>
<feColorMatrix type="matrix" values="0 0 0 0 0 0 0 0 0 0 0 0 0 0 0 0 0 0 0.03 0"/>
<feBlend mode="normal" in2="BackgroundImageFix" result="effect1_dropShadow_0_1178"/>
<feBlend mode="normal" in="SourceGraphic" in2="effect1_dropShadow_0_1178" result="shape"/>
</filter>
<filter id="filter10_d_0_1178" x="70" y="26" width="109" height="109" filterUnits="userSpaceOnUse" color-interpolation-filters="sRGB">
<feFlood flood-opacity="0" result="BackgroundImageFix"/>
<feColorMatrix in="SourceAlpha" type="matrix" values="0 0 0 0 0 0 0 0 0 0 0 0 0 0 0 0 0 0 127 0" result="hardAlpha"/>
<feOffset dy="1"/>
<feGaussianBlur stdDeviation="6"/>
<feComposite in2="hardAlpha" operator="out"/>
<feColorMatrix type="matrix" values="0 0 0 0 0 0 0 0 0 0 0 0 0 0 0 0 0 0 0.09 0"/>
<feBlend mode="normal" in2="BackgroundImageFix" result="effect1_dropShadow_0_1178"/>
<feBlend mode="normal" in="SourceGraphic" in2="effect1_dropShadow_0_1178" result="shape"/>
</filter>
<linearGradient id="paint0_linear_0_1178" x1="403" y1="58" x2="524" y2="45.5" gradientUnits="userSpaceOnUse">
<stop stop-color="#0857B6"/>
<stop offset="0.975358" stop-color="#1AAAE9"/>
</linearGradient>
<clipPath id="clip0_0_1178">
<rect width="36" height="36" fill="white" transform="translate(106 61)"/>
</clipPath>
<clipPath id="clip1_0_1178">
<rect width="30" height="30" fill="white" transform="translate(445 411)"/>
</clipPath>
<clipPath id="clip2_0_1178">
<rect width="35" height="35" fill="white" transform="translate(207 466)"/>
</clipPath>
</defs>
</svg>
