<svg width="79" height="41" viewBox="0 0 79 41" fill="none" xmlns="http://www.w3.org/2000/svg">
<path d="M37.0245 25.7004H9.13988C6.58622 25.7004 4.50851 23.7581 4.50851 21.3709C4.50851 18.9837 6.58605 17.1169 9.13988 17.1169L15.8493 17.0415V12.8267H9.13988C4.10001 12.8267 0 16.6596 0 21.3709C0 26.0821 4.10018 29.9152 9.13988 29.9152H37.0243L37.0245 25.7004Z" fill="white"/>
<path d="M11.4551 12.8738H25.2104C27.764 12.8738 29.8417 10.9315 29.8417 8.54427C29.8417 6.15707 27.7642 4.21479 25.2104 4.21479H11.6279V0H25.2104C30.2502 0 34.3503 3.83291 34.3503 8.54427C34.3503 13.2555 30.2501 17.0886 25.2104 17.0886H11.4551V12.8738Z" fill="white"/>
<path d="M15.8069 0.000244141H11.4256V40.3051H15.8069V0.000244141Z" fill="white"/>
<path d="M41.4037 29.9182H37.0247V25.7007L41.4037 25.6982V29.9182Z" fill="white"/>
<path d="M15.7964 12.8345H11.4221V17.0778H15.7964V12.8345Z" fill="#0454B5"/>
<path d="M48.7099 10.938C48.2954 10.685 47.9784 10.3452 47.7585 9.91835C47.5387 9.49151 47.4288 9.01727 47.4288 8.49561C47.4288 8.211 47.4624 7.92394 47.5302 7.63395L48.621 7.78416C48.5647 8.07399 48.5365 8.31901 48.5365 8.51924C48.5365 8.88286 48.6043 9.2043 48.7395 9.48354C48.8747 9.76277 49.0649 9.97879 49.3101 10.1318C49.5553 10.2846 49.8414 10.361 50.1684 10.361C50.4953 10.361 50.7815 10.2846 51.0267 10.1318C51.2719 9.97896 51.4622 9.76277 51.5975 9.48354C51.7327 9.2043 51.8003 8.88009 51.8003 8.51125V3.79224H52.908V8.47965C52.908 9.00668 52.798 9.4863 52.5781 9.91835C52.3582 10.3504 52.0425 10.6917 51.6311 10.942C51.2194 11.1922 50.7318 11.3175 50.168 11.3175C49.6104 11.3173 49.1241 11.1909 48.7099 10.938Z" fill="white"/>
<path d="M59.3006 9.19927C59.3006 9.5207 59.2441 9.68133 59.1314 9.68133H58.2013C58.1899 10.2452 58.0082 10.6864 57.6558 11.0053C57.3036 11.3242 56.8257 11.4863 56.2225 11.4915L56.0619 10.5192C56.107 10.5244 56.1689 10.527 56.2478 10.527C56.5352 10.527 56.7466 10.4611 56.882 10.3294C57.0173 10.1976 57.0878 9.98159 57.0934 9.68117H56.1971C55.7686 9.68117 55.3728 9.59156 55.0091 9.41236C54.6455 9.23331 54.3566 8.98699 54.1424 8.67338C53.928 8.35993 53.821 8.01324 53.821 7.63397C53.821 7.25454 53.9279 6.90672 54.1424 6.5905C54.3566 6.27428 54.6455 6.02404 55.0091 5.83962C55.3728 5.6552 55.7686 5.56299 56.1971 5.56299C56.5127 5.56299 56.8424 5.61708 57.1865 5.72509C57.5303 5.83326 57.8404 5.9768 58.1166 6.156L58.2011 6.18761V8.72502H59.1312C59.2441 8.72502 59.3006 8.88305 59.3006 9.19927ZM55.0939 8.19147C55.2039 8.35748 55.3561 8.48781 55.5505 8.58279C55.745 8.67761 55.9662 8.72502 56.2144 8.72502H57.0938V6.72523C56.7895 6.58838 56.4962 6.51979 56.2144 6.51979C55.9662 6.51979 55.7452 6.56997 55.5505 6.67C55.3561 6.7702 55.2039 6.90444 55.0939 7.07322C54.984 7.242 54.9291 7.42886 54.9291 7.63446C54.9289 7.83973 54.984 8.02546 55.0939 8.19147Z" fill="white"/>
<path d="M60.8566 9.19927C60.8566 9.5207 60.8001 9.68133 60.6874 9.68133H59.1314C59.0189 9.68133 58.9624 9.5207 58.9624 9.19927C58.9624 8.88305 59.0187 8.72485 59.1314 8.72485H60.6874C60.8001 8.72502 60.8566 8.88305 60.8566 9.19927Z" fill="white"/>
<path d="M62.4123 9.19927C62.4123 9.5207 62.3558 9.68133 62.243 9.68133H60.6871C60.5745 9.68133 60.5181 9.5207 60.5181 9.19927C60.5181 8.88305 60.5744 8.72485 60.6871 8.72485H62.243C62.3558 8.72502 62.4123 8.88305 62.4123 9.19927Z" fill="white"/>
<path d="M65.1097 9.19908C65.1097 9.52051 65.0532 9.68114 64.9404 9.68114H62.243C62.1304 9.68114 62.0738 9.52051 62.0738 9.19908C62.0738 8.88286 62.1302 8.72467 62.243 8.72467H62.9025V3.79224H64.0102V8.72467H64.9403C65.0532 8.72483 65.1097 8.88286 65.1097 9.19908Z" fill="white"/>
<path d="M66.6654 9.19927C66.6654 9.5207 66.609 9.68133 66.4962 9.68133H64.9403C64.8277 9.68133 64.7712 9.5207 64.7712 9.19927C64.7712 8.88305 64.8275 8.72485 64.9403 8.72485H66.4962C66.609 8.72502 66.6654 8.88305 66.6654 9.19927Z" fill="white"/>
<path d="M68.2216 9.19927C68.2216 9.5207 68.1651 9.68133 68.0524 9.68133H66.4964C66.3839 9.68133 66.3274 9.5207 66.3274 9.19927C66.3274 8.88305 66.3837 8.72485 66.4964 8.72485H68.0524C68.1651 8.72502 68.2216 8.88305 68.2216 9.19927Z" fill="white"/>
<path d="M69.7773 9.19927C69.7773 9.5207 69.721 9.68133 69.6082 9.68133H68.0523C67.9397 9.68133 67.8831 9.5207 67.8831 9.19927C67.8831 8.88305 67.9395 8.72485 68.0523 8.72485H69.6082C69.7208 8.72502 69.7773 8.88305 69.7773 9.19927Z" fill="white"/>
<path d="M71.3332 9.19927C71.3332 9.5207 71.2769 9.68133 71.1641 9.68133H69.6082C69.4956 9.68133 69.439 9.5207 69.439 9.19927C69.439 8.88305 69.4954 8.72485 69.6082 8.72485H71.1641C71.2769 8.72502 71.3332 8.88305 71.3332 9.19927Z" fill="white"/>
<path d="M72.8891 9.19927C72.8891 9.5207 72.8328 9.68133 72.72 9.68133H71.1641C71.0515 9.68133 70.9949 9.5207 70.9949 9.19927C70.9949 8.88305 71.0513 8.72485 71.1641 8.72485H72.72C72.8328 8.72502 72.8891 8.88305 72.8891 9.19927Z" fill="white"/>
<path d="M77.5396 8.72472L77.3789 9.68119H72.7198C72.6073 9.68119 72.5508 9.52056 72.5508 9.19913C72.5508 8.88291 72.6071 8.72472 72.7198 8.72472H76.0936V7.68141C76.0936 7.29676 75.9612 6.98966 75.6963 6.7606C75.4312 6.53138 75.079 6.41669 74.6395 6.41669C74.1491 6.41669 73.6951 6.55908 73.278 6.84353L72.796 5.95825C73.3542 5.62101 73.9685 5.45239 74.6395 5.45239C75.1297 5.45239 75.5696 5.54737 75.9584 5.73701C76.3474 5.9268 76.6518 6.19154 76.8716 6.53139C77.0914 6.87123 77.2015 7.25457 77.2015 7.68157V8.72488H77.5396V8.72472Z" fill="white"/>
<path d="M52.9082 19.305C52.9082 19.6265 52.8518 19.7871 52.739 19.7871H52.4938C51.8117 19.7871 51.3296 19.6001 51.0478 19.2258C50.5743 19.4313 50.1122 19.5341 49.6611 19.5341C49.2497 19.5341 48.8718 19.446 48.5282 19.2693C48.1841 19.0929 47.9109 18.8531 47.7078 18.5501C47.505 18.247 47.4036 17.9111 47.4036 17.5421C47.4036 17.1786 47.505 16.8439 47.7078 16.5382C47.9109 16.2328 48.1855 15.9916 48.5322 15.815C48.8788 15.6386 49.2551 15.5503 49.6611 15.5503H50.7436V15.3447H51.8511V18.1035C51.8511 18.3671 51.9047 18.5542 52.0118 18.6648C52.1188 18.7754 52.3162 18.8308 52.6036 18.8308H52.7388C52.8518 18.8306 52.9082 18.9888 52.9082 19.305ZM48.6017 14.8165C48.4992 14.716 48.4478 14.5909 48.4478 14.4412C48.4478 14.2867 48.4992 14.1606 48.6017 14.0622C48.7042 13.964 48.8331 13.9148 48.9882 13.9148C49.1484 13.9148 49.2798 13.964 49.3823 14.0622C49.4849 14.1606 49.5363 14.2867 49.5363 14.4412C49.5363 14.5909 49.4837 14.716 49.3788 14.8165C49.2735 14.9171 49.1435 14.9672 48.9884 14.9672C48.8331 14.9672 48.7042 14.9169 48.6017 14.8165ZM50.7519 18.2852C50.7463 18.2484 50.7436 18.1904 50.7436 18.1113V16.5066H49.6866C49.4724 16.5066 49.2751 16.5529 49.0947 16.6449C48.9144 16.7372 48.772 16.8623 48.6678 17.0205C48.5634 17.1787 48.5114 17.3525 48.5114 17.5421C48.5114 17.8321 48.624 18.0771 48.8497 18.2773C49.075 18.4776 49.3624 18.5778 49.712 18.5778C50.0444 18.5778 50.391 18.4803 50.7519 18.2852ZM49.963 14.8165C49.8605 14.716 49.8091 14.5909 49.8091 14.4412C49.8091 14.2867 49.8605 14.1606 49.963 14.0622C50.0654 13.964 50.1944 13.9148 50.3497 13.9148C50.5097 13.9148 50.6411 13.964 50.7437 14.0622C50.8462 14.1606 50.8976 14.2867 50.8976 14.4412C50.8976 14.5909 50.845 14.716 50.7401 14.8165C50.6348 14.9171 50.5048 14.9672 50.3499 14.9672C50.1944 14.9672 50.0654 14.9169 49.963 14.8165Z" fill="white"/>
<path d="M54.464 19.3052C54.464 19.6267 54.4076 19.7873 54.2948 19.7873H52.7389C52.6263 19.7873 52.5698 19.6267 52.5698 19.3052C52.5698 18.989 52.6261 18.8308 52.7389 18.8308H54.2948C54.4074 18.8308 54.464 18.989 54.464 19.3052Z" fill="white"/>
<path d="M56.0199 19.3052C56.0199 19.6267 55.9635 19.7873 55.8507 19.7873H54.2948C54.1822 19.7873 54.1257 19.6267 54.1257 19.3052C54.1257 18.989 54.182 18.8308 54.2948 18.8308H55.8507C55.9635 18.8308 56.0199 18.989 56.0199 19.3052Z" fill="white"/>
<path d="M57.5756 19.3052C57.5756 19.6267 57.5193 19.7873 57.4066 19.7873H55.8506C55.738 19.7873 55.6814 19.6267 55.6814 19.3052C55.6814 18.989 55.7379 18.8308 55.8506 18.8308H57.4066C57.5193 18.8308 57.5756 18.989 57.5756 19.3052Z" fill="white"/>
<path d="M63.2664 19.3051C63.2664 19.6265 63.2099 19.7872 63.0971 19.7872H57.4065C57.294 19.7872 57.2373 19.6265 57.2373 19.3051C57.2373 18.9889 57.2938 18.8307 57.4065 18.8307H60.7803V17.7874C60.7803 17.4027 60.6477 17.0956 60.383 16.8666C60.1179 16.6373 59.7657 16.5226 59.326 16.5226C58.8356 16.5226 58.3818 16.665 57.9646 16.9495L57.4825 16.0642C58.0405 15.727 58.655 15.5583 59.3258 15.5583C59.8162 15.5583 60.2559 15.6533 60.6449 15.843C61.0337 16.0328 61.3384 16.2975 61.5581 16.6373C61.7779 16.9772 61.8879 17.3605 61.8879 17.7875V18.8308H63.097C63.2099 18.8307 63.2664 18.9889 63.2664 19.3051ZM58.8398 21.4352C58.7242 21.3218 58.6665 21.1809 58.6665 21.0123C58.6665 20.8384 58.7242 20.6961 58.8398 20.5854C58.9553 20.4748 59.1005 20.4194 59.2753 20.4194C59.4557 20.4194 59.6036 20.4748 59.7192 20.5854C59.8347 20.6961 59.8926 20.8384 59.8926 21.0123C59.8926 21.1809 59.8333 21.3218 59.7148 21.4352C59.5965 21.5484 59.4497 21.6051 59.2753 21.6051C59.1005 21.6053 58.9553 21.5486 58.8398 21.4352Z" fill="white"/>
<path d="M67.1939 16.0561C67.6195 16.3882 67.9522 16.8388 68.1918 17.4079C68.4312 17.9771 68.5369 18.5989 68.5088 19.2734C68.12 19.4422 67.6984 19.5697 67.2446 19.6567C66.7908 19.7437 66.3807 19.7872 66.0142 19.7872C65.4673 19.7872 64.9348 19.6766 64.4161 19.4552C64.1341 19.6765 63.7791 19.7872 63.3508 19.7872H63.097C62.9844 19.7872 62.928 19.6266 62.928 19.3052C62.928 18.9889 62.9843 18.8308 63.097 18.8308H63.2155C63.3902 18.8308 63.527 18.7913 63.6256 18.7122C63.7242 18.6331 63.7877 18.5093 63.8159 18.3407L63.8414 18.1351C63.8976 17.7241 63.978 17.342 64.0824 16.989C64.1868 16.636 64.3769 16.3092 64.6531 16.0087C64.9294 15.7083 65.3126 15.5581 65.8032 15.5581C66.3047 15.5581 66.7683 15.7241 67.1939 16.0561ZM65.4649 18.7713C65.6395 18.8109 65.8255 18.8306 66.0229 18.8306C66.4402 18.8306 66.8908 18.7648 67.3758 18.633C67.3307 18.2589 67.2293 17.9098 67.0716 17.5856C66.9137 17.2616 66.7261 17.0033 66.5092 16.8109C66.292 16.6187 66.0736 16.5224 65.8537 16.5224C65.6338 16.5224 65.4619 16.6161 65.338 16.8031C65.2139 16.9901 65.1279 17.2023 65.0801 17.4395C65.0322 17.6767 64.9884 17.9611 64.9491 18.2931C64.9435 18.3617 64.9377 18.4196 64.9321 18.4671C64.9264 18.5145 64.9208 18.5541 64.9151 18.5857C65.1068 18.67 65.2901 18.7317 65.4649 18.7713Z" fill="white"/>
<path d="M74.2927 19.3051C74.2927 19.6265 74.2363 19.7872 74.1235 19.7872H73.6331C73.0413 19.7872 72.6044 19.6502 72.3224 19.3761C72.0406 19.1021 71.8968 18.6911 71.891 18.143C71.6544 18.201 71.4062 18.23 71.1469 18.23C70.8707 18.23 70.6141 18.1984 70.3775 18.135V19.7238C70.3775 20.2981 70.2082 20.75 69.8701 21.0794C69.532 21.4087 69.0669 21.5786 68.4749 21.5892L68.3142 20.6327C68.6523 20.6485 68.8963 20.5866 69.0456 20.447C69.1948 20.3074 69.2696 20.0662 69.2696 19.7238V15.8821H70.3773V17.1786C70.614 17.2418 70.8705 17.2734 71.1467 17.2734C71.4058 17.2734 71.654 17.2445 71.8909 17.1864V15.8821H72.9902V18.1033C72.9902 18.3669 73.0439 18.5539 73.1509 18.6645C73.2579 18.7751 73.4553 18.8305 73.7427 18.8305H74.1233C74.2363 18.8307 74.2927 18.9889 74.2927 19.3051ZM71.9377 21.4352C71.822 21.3218 71.7643 21.1809 71.7643 21.0123C71.7643 20.8385 71.822 20.6961 71.9377 20.5855C72.0531 20.4748 72.1983 20.4194 72.3731 20.4194C72.5535 20.4194 72.7016 20.4748 72.8171 20.5855C72.9325 20.6961 72.9904 20.8385 72.9904 21.0123C72.9904 21.1809 72.9313 21.3218 72.8128 21.4352C72.6943 21.5485 72.5477 21.6051 72.3731 21.6051C72.1985 21.6051 72.0531 21.5486 71.9377 21.4352Z" fill="white"/>
<path d="M75.891 13.8982V19.7871H74.1236C74.0111 19.7871 73.9546 19.6265 73.9546 19.305C73.9546 18.9888 74.0109 18.8306 74.1236 18.8306H74.7833V13.8982H75.891Z" fill="white"/>
<path d="M77.2776 13.8982H78.3769V19.7871H77.2776V13.8982Z" fill="white"/>
<path d="M52.9082 29.4104C52.9082 29.732 52.8518 29.8926 52.739 29.8926H52.4938C51.8117 29.8926 51.3296 29.7058 51.0478 29.3314C50.5743 29.537 50.1122 29.6398 49.6611 29.6398C49.2497 29.6398 48.8718 29.5517 48.5282 29.3751C48.1841 29.1985 47.9109 28.9588 47.7078 28.6556C47.505 28.3528 47.4036 28.0168 47.4036 27.6478C47.4036 27.2842 47.505 26.9496 47.7078 26.6439C47.9109 26.3383 48.1855 26.0974 48.5322 25.9208C48.8788 25.7442 49.2551 25.6558 49.6611 25.6558H50.7436V25.4504H51.8511V28.2091C51.8511 28.4727 51.9047 28.6597 52.0118 28.7703C52.1188 28.8809 52.3162 28.9363 52.6036 28.9363H52.7388C52.8518 28.9362 52.9082 29.0944 52.9082 29.4104ZM48.6017 24.9221C48.4992 24.8216 48.4478 24.6964 48.4478 24.5467C48.4478 24.3924 48.4992 24.266 48.6017 24.1678C48.7042 24.0695 48.8331 24.0205 48.9882 24.0205C49.1484 24.0205 49.2798 24.0697 49.3823 24.1678C49.4849 24.2662 49.5363 24.3924 49.5363 24.5467C49.5363 24.6964 49.4837 24.8216 49.3788 24.9221C49.2735 25.0226 49.1435 25.0729 48.9884 25.0729C48.8331 25.0728 48.7042 25.0226 48.6017 24.9221ZM50.7519 28.3909C50.7463 28.3541 50.7436 28.2961 50.7436 28.217V26.6123H49.6866C49.4724 26.6123 49.2751 26.6584 49.0947 26.7508C48.9144 26.8432 48.772 26.9681 48.6678 27.1263C48.5634 27.2844 48.5114 27.4582 48.5114 27.648C48.5114 27.9378 48.624 28.1828 48.8497 28.3831C49.075 28.5834 49.3624 28.6835 49.712 28.6835C50.0444 28.6831 50.391 28.5859 50.7519 28.3909ZM49.963 24.9221C49.8605 24.8216 49.8091 24.6964 49.8091 24.5467C49.8091 24.3924 49.8605 24.266 49.963 24.1678C50.0654 24.0695 50.1944 24.0205 50.3497 24.0205C50.5097 24.0205 50.6411 24.0697 50.7437 24.1678C50.8462 24.2662 50.8976 24.3924 50.8976 24.5467C50.8976 24.6964 50.845 24.8216 50.7401 24.9221C50.6348 25.0226 50.5048 25.0729 50.3499 25.0729C50.1944 25.0728 50.0654 25.0226 49.963 24.9221Z" fill="white"/>
<path d="M54.464 29.4108C54.464 29.7324 54.4076 29.893 54.2948 29.893H52.7389C52.6263 29.893 52.5698 29.7324 52.5698 29.4108C52.5698 29.0947 52.6261 28.9365 52.7389 28.9365H54.2948C54.4074 28.9365 54.464 29.0947 54.464 29.4108Z" fill="white"/>
<path d="M56.0199 29.4108C56.0199 29.7324 55.9635 29.893 55.8507 29.893H54.2948C54.1822 29.893 54.1257 29.7324 54.1257 29.4108C54.1257 29.0947 54.182 28.9365 54.2948 28.9365H55.8507C55.9635 28.9365 56.0199 29.0947 56.0199 29.4108Z" fill="white"/>
<path d="M57.5756 29.4108C57.5756 29.7324 57.5193 29.893 57.4066 29.893H55.8506C55.738 29.893 55.6814 29.7324 55.6814 29.4108C55.6814 29.0947 55.7379 28.9365 55.8506 28.9365H57.4066C57.5193 28.9365 57.5756 29.0947 57.5756 29.4108Z" fill="white"/>
<path d="M60.9748 29.4105C60.9748 29.7321 60.9185 29.8927 60.8058 29.8927H60.3492C59.8588 29.8927 59.4585 29.7715 59.1484 29.5293C58.872 29.7715 58.455 29.8927 57.8968 29.8927H57.4065C57.294 29.8927 57.2373 29.7321 57.2373 29.4105C57.2373 29.0944 57.2938 28.9362 57.4065 28.9362H57.7871C58.0745 28.9362 58.2718 28.8809 58.379 28.7702C58.486 28.6595 58.5397 28.4726 58.5397 28.209V25.9878H59.639V28.217C59.639 28.4278 59.6165 28.6254 59.5714 28.8098C59.7122 28.8944 59.887 28.9362 60.0956 28.9362H60.806C60.9185 28.9362 60.9748 29.0944 60.9748 29.4105ZM58.0297 31.4039C57.9271 31.3034 57.8759 31.1783 57.8759 31.0286C57.8759 30.8743 57.9271 30.7477 58.0297 30.6496C58.1322 30.5512 58.2612 30.5023 58.4163 30.5023C58.5764 30.5023 58.7078 30.5514 58.8103 30.6496C58.9128 30.7479 58.9642 30.8743 58.9642 31.0286C58.9642 31.1783 58.9117 31.3034 58.8067 31.4039C58.7016 31.5045 58.5714 31.5548 58.4165 31.5548C58.2615 31.5548 58.1322 31.5045 58.0297 31.4039ZM59.3912 31.4039C59.2885 31.3034 59.2373 31.1783 59.2373 31.0286C59.2373 30.8743 59.2885 30.7477 59.3912 30.6496C59.4937 30.5512 59.6226 30.5023 59.7777 30.5023C59.9379 30.5023 60.0693 30.5514 60.1718 30.6496C60.2744 30.7479 60.3258 30.8743 60.3258 31.0286C60.3258 31.1783 60.2732 31.3034 60.1681 31.4039C60.063 31.5045 59.933 31.5548 59.7779 31.5548C59.6226 31.5546 59.4937 31.5045 59.3912 31.4039Z" fill="white"/>
<path d="M62.5307 29.4108C62.5307 29.7324 62.4744 29.893 62.3616 29.893H60.8057C60.6931 29.893 60.6365 29.7324 60.6365 29.4108C60.6365 29.0947 60.693 28.9365 60.8057 28.9365H62.3616C62.4742 28.9365 62.5307 29.0947 62.5307 29.4108Z" fill="white"/>
<path d="M65.5664 27.2015C65.8762 27.6677 66.0315 28.2461 66.0315 28.9363V29.8928H62.3616C62.249 29.8928 62.1924 29.7322 62.1924 29.4106C62.1924 29.0945 62.2489 28.9363 62.3616 28.9363H64.9236V28.8731C64.9236 28.3145 64.791 27.8824 64.5263 27.5768C64.2612 27.2712 63.8836 27.1184 63.3931 27.1184L62.7083 26.4465L64.9322 24.3359L65.6256 25.0078L64.2896 26.2647C64.8306 26.4227 65.2562 26.7349 65.5664 27.2015Z" fill="white"/>
<path d="M73.1089 29.4104C73.1089 29.732 73.0524 29.8927 72.9397 29.8927H72.2802C71.7276 29.8927 71.2962 29.7819 70.9864 29.5607C70.2478 29.7819 69.4475 29.8927 68.585 29.8927C68.0155 29.8927 67.469 29.8427 66.9446 29.7425V28.7545C67.4632 28.8758 68.0129 28.9362 68.5934 28.9362C69.2361 28.9362 69.8309 28.865 70.3776 28.7228C70.3269 28.612 70.2732 28.475 70.2169 28.3117L69.1852 25.5215L70.2255 25.2131L71.257 28.0113C71.3696 28.3223 71.4599 28.5358 71.5277 28.6518C71.5953 28.7677 71.6798 28.8429 71.7812 28.8771C71.8828 28.9113 72.0489 28.9284 72.2802 28.9284H72.9397V28.9362C73.0524 28.9362 73.1089 29.0944 73.1089 29.4104ZM68.9697 24.6559C68.8541 24.5427 68.7964 24.4018 68.7964 24.233C68.7964 24.0592 68.8541 23.9169 68.9697 23.8061C69.0852 23.6955 69.2304 23.6401 69.4052 23.6401C69.5856 23.6401 69.7335 23.6955 69.8492 23.8061C69.9646 23.9169 70.0225 24.0592 70.0225 24.233C70.0225 24.4018 69.9632 24.5425 69.8449 24.6559C69.7264 24.7693 69.5798 24.826 69.4052 24.826C69.2304 24.826 69.0852 24.7693 68.9697 24.6559Z" fill="white"/>
<path d="M74.7071 24.0039V29.8928H72.9398C72.8272 29.8928 72.7708 29.7322 72.7708 29.4106C72.7708 29.0945 72.8271 28.9363 72.9398 28.9363H73.5994V24.0039H74.7071Z" fill="white"/>
<path d="M76.094 24.0039H77.1932V29.8928H76.094V24.0039Z" fill="white"/>
</svg>
